<svg width="24" height="24" viewBox="0 0 24 24" fill="none" xmlns="http://www.w3.org/2000/svg">
<g clip-path="url(#clip0_5886_3715)">
<path d="M9.86249 31.833L11.9706 33.9411L14.0787 31.833L14.0787 18.9502L9.86248 18.9502L9.86249 31.833Z" fill="#FFC12E"/>
<path d="M11.9675 33.938L11.9705 33.941L14.0786 31.8329L14.0786 18.95L11.9675 18.95L11.9675 33.938Z" fill="#F7A520"/>
<path d="M9.86249 22.1141H14.0787L14.0787 18.9502L9.86249 18.9501V22.1141Z" fill="#F7A520"/>
<path d="M14.0787 22.1141L14.0787 18.9501L11.9676 18.9501L11.9676 22.1141H14.0787Z" fill="#F2860A"/>
<mask id="mask0_5886_3715" style="mask-type:luminance" maskUnits="userSpaceOnUse" x="-5" y="0" width="34" height="34">
<path d="M-4.99998 16.9705L11.9706 -2.11445e-05L28.9411 16.9705L11.9706 33.9411L-4.99998 16.9705Z" fill="white"/>
</mask>
<g mask="url(#mask0_5886_3715)">
<path d="M16.073 4.5381C15.7415 4.60147 15.5018 4.8913 15.5018 5.22872V6.35998L15.5018 8.19326C15.5018 9.75131 15.8682 10.8402 16.2347 11.7823C16.3478 12.231 16.5349 13.3347 15.9309 14.1916C15.3878 14.962 14.2688 15.4151 12.6737 15.5165L12.6737 6.27781C12.8627 6.44606 13.1362 6.50658 13.3894 6.41112C13.486 6.3747 13.5699 6.31934 13.6384 6.25083C13.8277 6.0615 13.8999 5.77198 13.7993 5.50519L12.6094 2.34889C12.5062 2.07501 12.2442 1.89377 11.9515 1.89377C11.6589 1.89374 11.3968 2.07508 11.2936 2.34883L10.1419 5.40376C10.0049 5.76714 10.1884 6.17277 10.5517 6.30973C10.8049 6.40526 11.0784 6.3447 11.2675 6.17645L11.2675 15.5177C9.6647 15.4192 8.54275 14.9674 8.00224 14.1962C7.37274 13.298 7.61716 12.1266 7.72853 11.7254C8.08759 10.7963 8.43933 9.71995 8.43933 8.19326L8.43934 6.35998V5.22872C8.43937 4.89126 8.19959 4.60144 7.86814 4.53813C7.53668 4.47476 7.20695 4.65593 7.08262 4.96952L5.85132 8.07407C5.7082 8.43509 5.88474 8.84378 6.24572 8.98694C6.51735 9.09463 6.81586 9.02124 7.00811 8.82449C6.91676 9.95999 6.58862 10.7884 6.26949 11.5933C5.92123 12.4719 5.56107 13.3803 5.56107 14.5712C5.56107 16.3077 6.25176 17.6918 7.55846 18.5737C8.65747 19.3154 10.1419 19.6914 11.9706 19.6915C13.7992 19.6915 15.2837 19.3154 16.3827 18.5737C16.6326 18.405 16.8598 18.2181 17.0641 18.0138C17.9282 17.1497 18.3801 15.9757 18.3801 14.5712C18.3801 13.3803 18.0199 12.4719 17.6716 11.5933C17.3526 10.7884 17.0244 9.96006 16.933 8.82449C17.1252 9.02121 17.4238 9.09463 17.6954 8.98694C17.7874 8.95041 17.8674 8.89671 17.9333 8.83089C18.1256 8.63851 18.1964 8.34305 18.0898 8.07411L16.8585 4.96952C16.7341 4.65586 16.4044 4.47476 16.073 4.5381Z" fill="#FFC12E"/>
<path d="M18.0898 8.07412L16.8585 4.96953C16.7341 4.65584 16.4044 4.47477 16.073 4.53811C15.7414 4.60145 15.5018 4.89131 15.5018 5.22873L15.5018 6.35999V8.19327C15.5018 9.75132 15.8681 10.8402 16.2347 11.7823C16.3478 12.231 16.5348 13.3347 15.9309 14.1915C15.3877 14.962 14.2688 15.4151 12.6736 15.5164L12.6737 6.27782C12.8627 6.44607 13.1362 6.50656 13.3894 6.41113C13.486 6.37474 13.5699 6.31935 13.6384 6.25084C13.8276 6.06151 13.8998 5.77195 13.7993 5.5052L12.6094 2.34891C12.5081 2.08009 12.2537 1.90094 11.9676 1.89444L11.9676 19.6914C11.9686 19.6914 11.9696 19.6915 11.9706 19.6915C13.7992 19.6915 15.2837 19.3154 16.3827 18.5737C16.6326 18.405 16.8598 18.2181 17.0641 18.0138C17.9282 17.1497 18.3801 15.9757 18.3801 14.5712C18.3801 13.3803 18.0199 12.4719 17.6716 11.5933C17.3525 10.7884 17.0243 9.96004 16.933 8.8245C17.1252 9.02122 17.4238 9.09464 17.6954 8.98695C17.7874 8.95042 17.8674 8.89672 17.9333 8.8309C18.1256 8.63852 18.1964 8.34306 18.0898 8.07412Z" fill="#F7A520"/>
</g>
</g>
<defs>
<clipPath id="clip0_5886_3715">
<rect width="24" height="24" fill="white"/>
</clipPath>
</defs>
</svg>
