<svg width="37" height="36" viewBox="0 0 37 36" fill="none" xmlns="http://www.w3.org/2000/svg">
<path d="M31.3676 11.7627C31.3409 11.7576 31.3144 11.7533 31.2873 11.7493L26.0618 10.9899L23.724 6.25303C23.6791 6.16209 23.6354 6.07417 23.5933 5.99042C23.5543 5.91255 23.5164 5.83846 23.4781 5.76457C23.4756 5.75945 23.466 5.74051 23.4631 5.73539C23.4228 5.65771 23.3832 5.58343 23.3468 5.51693C23.3434 5.5103 23.3326 5.4904 23.3292 5.48396C23.2865 5.4059 23.2443 5.33162 23.2077 5.26948C23.2037 5.26228 23.1931 5.24409 23.1888 5.2367C23.1442 5.16072 23.0995 5.08834 23.0554 5.01937C23.0487 5.00857 23.0402 4.99531 23.0347 4.98678C22.99 4.91762 22.9447 4.8515 22.8922 4.7776C22.8839 4.76548 22.8729 4.74994 22.8652 4.73952C22.8085 4.66127 22.7507 4.58737 22.6922 4.51594C22.6859 4.50836 22.6795 4.5004 22.6728 4.49225C22.6101 4.41722 22.5461 4.34598 22.4807 4.27777C22.4709 4.26735 22.4589 4.25503 22.4506 4.24651C22.382 4.17659 22.309 4.108 22.2321 4.04093C22.2223 4.03221 22.2115 4.02293 22.2031 4.01573C22.1213 3.946 22.0341 3.87836 21.9566 3.8236C21.9498 3.81868 21.9346 3.80788 21.928 3.80314C21.8369 3.73948 21.7399 3.67828 21.6396 3.62162C21.6393 3.62143 21.6391 3.62124 21.6387 3.62105C21.6349 3.61878 21.6311 3.6167 21.6271 3.61461C21.5282 3.5591 21.4233 3.5068 21.3153 3.45905C21.3113 3.45735 21.3073 3.45564 21.3035 3.45394C20.8465 3.25423 20.3307 3.13581 19.7261 3.09204C19.6242 3.08465 19.5238 3.08105 19.4253 3.08105C16.7794 3.08105 15.506 5.48188 15.3663 5.76211L12.7863 10.9899L7.51418 11.7561C7.49448 11.7589 7.47496 11.7622 7.45563 11.7656C6.04102 12.0189 4.43789 12.3061 3.50984 14.1876C3.4909 14.2253 3.47233 14.2636 3.45452 14.3015C3.4333 14.3468 3.41227 14.3924 3.39673 14.429C3.35713 14.5188 3.31829 14.6115 3.27963 14.7123C3.23605 14.8267 3.19702 14.947 3.16349 15.0692C3.15003 15.1168 3.13753 15.1644 3.12218 15.2271C3.10873 15.2847 3.09736 15.3417 3.0877 15.3915C3.06344 15.5158 3.04488 15.6403 3.03275 15.762C3.03199 15.7686 3.03142 15.775 3.03085 15.7817C2.86165 17.5546 3.903 18.9002 4.35869 19.3966C4.38104 19.4211 4.40435 19.4448 4.42803 19.4681L8.68342 23.6164L7.70062 29.3444C7.68831 29.416 7.68035 29.4886 7.67694 29.5613C7.61858 30.7597 7.54601 32.2515 8.93163 33.5192L8.95873 33.5437C9.01784 33.5969 9.07904 33.6504 9.14403 33.703C9.16525 33.7203 9.18761 33.7379 9.21016 33.7553L10.3167 32.3358L9.22608 33.768L9.24085 33.7796C9.28386 33.8133 9.32744 33.8468 9.37102 33.8789C9.45079 33.9376 9.53435 33.9961 9.62568 34.0566C9.7261 34.1231 9.83296 34.1869 9.94835 34.2493C9.98397 34.2684 10.0194 34.286 10.0581 34.3046C10.1283 34.3398 10.199 34.374 10.2667 34.4031C10.3129 34.423 10.3591 34.441 10.415 34.4621C10.4162 34.4626 10.4321 34.4687 10.4334 34.4691C10.4849 34.4892 10.537 34.5085 10.5901 34.5263C10.6475 34.5452 10.7042 34.5619 10.7614 34.578C10.7631 34.5784 10.7864 34.585 10.7881 34.5854C10.829 34.5972 10.8701 34.6083 10.9006 34.6157C10.9734 34.6339 11.046 34.6489 11.124 34.6637C11.1536 34.6695 11.1833 34.675 11.2119 34.6798C11.2919 34.693 11.3715 34.7035 11.4588 34.7129L11.5043 34.7177C11.592 34.726 11.6788 34.7315 11.7654 34.7341C11.7737 34.7345 11.7828 34.7347 11.7879 34.7349C12.7086 34.7601 13.5218 34.4848 14.0262 34.2544C14.0571 34.2402 14.0876 34.2254 14.1177 34.2095L14.491 34.0128C14.501 34.0075 14.5109 34.0022 14.5209 33.9967C14.5329 33.9907 14.5448 33.9846 14.5565 33.9783L19.4245 31.4195L24.282 33.9732C24.2894 33.977 24.2966 33.9808 24.304 33.9846C24.3046 33.985 24.305 33.9852 24.3055 33.9853L24.7707 34.2302C24.8067 34.2491 24.8434 34.2669 24.8808 34.2834C24.9325 34.3063 24.9871 34.3294 25.0325 34.3478C25.0568 34.3577 25.082 34.3677 25.1068 34.3772C25.1432 34.3914 25.1792 34.4054 25.2105 34.417C25.2394 34.4278 25.2692 34.4382 25.3111 34.4526C25.3128 34.4532 25.3306 34.4594 25.3323 34.46L25.391 34.4799C25.4337 34.4941 25.4774 34.5075 25.5176 34.5199L25.5871 34.5407C25.6362 34.5549 25.6862 34.5685 25.7444 34.5835L25.7872 34.5943C25.8458 34.6089 25.9049 34.6224 25.9682 34.6356C25.9769 34.6375 25.9831 34.6387 25.9918 34.6404C26.3073 34.7048 26.6237 34.7376 26.9318 34.7376C27.7625 34.7376 28.5304 34.5087 29.2142 34.0568C31.1643 32.7672 31.2499 31.2889 31.1595 29.4905C31.1559 29.4187 31.148 29.3474 31.1359 29.2765L30.1646 23.6164L34.5072 19.3836C34.55 19.3417 34.5907 19.2977 34.6294 19.2519C34.6593 19.2163 34.6921 19.1755 34.7266 19.1323L34.7465 19.1067C34.7736 19.0721 34.8014 19.0355 34.8369 18.9879L34.8596 18.9571C34.8876 18.9186 34.9164 18.8779 34.9485 18.8314L34.9765 18.7905C35.0127 18.7373 35.0491 18.6816 35.0858 18.6232C35.087 18.6211 35.1042 18.5935 35.1055 18.5916C35.1396 18.5362 35.1737 18.4788 35.2063 18.4218C35.2209 18.3964 35.2351 18.3704 35.2493 18.3439L35.2615 18.3217C35.281 18.2859 35.3001 18.2497 35.3194 18.2122C35.3393 18.1736 35.3589 18.1342 35.3778 18.0953C35.3947 18.0605 35.411 18.0252 35.4293 17.9847C35.4498 17.9394 35.4703 17.8939 35.4904 17.8462C35.501 17.821 35.511 17.7954 35.519 17.7747C35.5701 17.6478 35.6158 17.5186 35.6529 17.3975C35.656 17.3882 35.6592 17.3778 35.6613 17.3713C35.6632 17.3653 35.665 17.3592 35.6668 17.3532C35.687 17.2851 35.705 17.2156 35.7262 17.13L35.7416 17.0655C35.7586 16.9915 35.7736 16.9166 35.7855 16.8467L35.7986 16.7665C35.9193 15.9977 35.8312 15.2491 35.5372 14.5417C34.5828 12.2463 32.9558 11.9812 31.3676 11.7627Z" fill="white"/>
<path d="M31.208 11.6034C31.1815 11.5983 31.1548 11.5939 31.1277 11.5899L25.9022 10.8305L23.5645 6.09366C23.5196 6.00253 23.4758 5.9148 23.4339 5.83105C23.3949 5.75318 23.3562 5.67929 23.3189 5.6052C23.3162 5.60009 23.3066 5.58114 23.3039 5.57621C23.2636 5.49834 23.2228 5.42482 23.1876 5.35756C23.1842 5.35112 23.1734 5.33103 23.17 5.32478C23.1266 5.24691 23.0847 5.17263 23.0487 5.11011C23.0445 5.10272 23.0341 5.08472 23.0298 5.07733C22.9849 5.00173 22.9401 4.92935 22.8964 4.86C22.8896 4.8492 22.8812 4.83575 22.8759 4.82741C22.8314 4.75806 22.7853 4.69251 22.7332 4.61823C22.7247 4.6063 22.7137 4.59057 22.7061 4.58015C22.6493 4.50209 22.5917 4.42781 22.5332 4.35657C22.5269 4.34899 22.5205 4.34103 22.5136 4.33289C22.4513 4.25766 22.3869 4.18661 22.3217 4.1184C22.3117 4.10798 22.2999 4.09566 22.2914 4.08714C22.2228 4.01722 22.1497 3.94901 22.0729 3.88156C22.0631 3.87284 22.0523 3.86356 22.0439 3.85636C21.9623 3.78644 21.8742 3.72013 21.7974 3.66442C21.7906 3.6595 21.7754 3.6487 21.7688 3.64396C21.6777 3.5803 21.5805 3.5191 21.4804 3.46263C21.4801 3.46244 21.4801 3.46225 21.4797 3.46206C21.4759 3.45998 21.4721 3.45771 21.4681 3.45543C21.3692 3.39973 21.2639 3.34838 21.1562 3.30006C21.1523 3.29836 21.1485 3.29646 21.1445 3.29476C20.6869 3.096 20.1717 2.97663 19.5669 2.93286C19.465 2.92529 19.3646 2.92188 19.2661 2.92188C16.6204 2.92188 15.3468 5.3227 15.2073 5.60293L12.6269 10.8305L7.3548 11.5965C7.33509 11.5994 7.31577 11.6026 7.29606 11.606C5.88164 11.8593 4.28362 12.1492 3.35046 14.0281C3.3317 14.066 3.31295 14.1039 3.29532 14.1419C3.27429 14.1872 3.25326 14.2331 3.23735 14.2695C3.19812 14.3595 3.15909 14.4521 3.12044 14.5527C3.07705 14.6672 3.03821 14.7879 3.00429 14.9095C2.99103 14.9572 2.97796 15.0044 2.96299 15.0673C2.94916 15.1249 2.93836 15.182 2.92869 15.2318C2.90482 15.3563 2.8872 15.4808 2.87375 15.6024C2.87299 15.6088 2.87242 15.6155 2.87166 15.6221C2.71705 17.3963 3.744 18.7407 4.19949 19.2371C4.22204 19.2613 4.24516 19.2852 4.26884 19.3085L8.52423 23.457L7.54143 29.1846C7.52911 29.2564 7.52116 29.3288 7.51775 29.4018C7.45939 30.6002 7.38682 32.0917 8.77244 33.3597L8.79935 33.3843C8.85846 33.4376 8.91985 33.4908 8.98484 33.5437C9.00606 33.5609 9.02823 33.5785 9.05078 33.596L10.1575 32.1764L9.06688 33.6087L9.08166 33.6202C9.12467 33.6539 9.16806 33.6877 9.21183 33.7197C9.29141 33.7782 9.37516 33.8368 9.46648 33.8974C9.5669 33.9639 9.67377 34.0278 9.78916 34.0901C9.82478 34.1094 9.8604 34.1265 9.89886 34.1452C9.96972 34.1799 10.0398 34.2148 10.1075 34.2438C10.1539 34.2637 10.1992 34.2839 10.2558 34.3027C10.257 34.3033 10.2729 34.3091 10.274 34.3097C10.3267 34.3275 10.3777 34.3491 10.4309 34.3669C10.4883 34.3861 10.5446 34.4044 10.6024 34.4187C10.6041 34.419 10.6272 34.4257 10.6291 34.426C10.6702 34.4372 10.7111 34.449 10.7418 34.4564C10.8146 34.4742 10.8872 34.4891 10.9652 34.5041C10.9948 34.5098 11.0245 34.5155 11.0531 34.5202C11.1333 34.5337 11.2127 34.5441 11.3 34.5534L11.3455 34.5581C11.4332 34.5664 11.5202 34.571 11.6066 34.5746C11.6151 34.575 11.624 34.5752 11.6291 34.5753C12.5498 34.6038 13.363 34.3252 13.8672 34.0948C13.8983 34.0806 13.9288 34.0659 13.9587 34.0499L14.332 33.8531C14.342 33.848 14.3521 33.8425 14.3619 33.837C14.3739 33.8309 14.3858 33.8248 14.3975 33.8188L19.2653 31.2599L24.1225 33.8135C24.1297 33.8173 24.1371 33.8214 24.1443 33.8247C24.1448 33.825 24.1452 33.8252 24.1458 33.8254L24.6109 34.0702C24.6469 34.0893 24.6835 34.107 24.7208 34.1235C24.7725 34.1466 24.8271 34.1697 24.8728 34.1881C24.897 34.1979 24.9222 34.2078 24.9469 34.2172C24.9832 34.2315 25.0192 34.2455 25.0503 34.257C25.0793 34.2676 25.1096 34.2767 25.1511 34.2927C25.1528 34.2934 25.1706 34.2995 25.1723 34.3L25.2309 34.3199C25.2735 34.3341 25.3171 34.3476 25.3575 34.3599L25.4272 34.3806C25.4762 34.3948 25.5263 34.4084 25.5844 34.4236L25.6273 34.4344C25.686 34.449 25.7449 34.4624 25.8082 34.4755C25.8169 34.4774 25.8234 34.4785 25.8321 34.4802C26.1479 34.5428 26.4638 34.5774 26.7719 34.5774C27.6025 34.5774 28.3705 34.3485 29.0543 33.8967C31.0043 32.6071 31.0902 31.129 30.9996 29.3303C30.996 29.2585 30.988 29.1873 30.9759 29.1164L30.0047 23.4563L34.3472 19.2234C34.39 19.1816 34.4308 19.1376 34.4694 19.0917C34.4994 19.0561 34.5321 19.0154 34.5664 18.9722L34.5863 18.9466C34.6134 18.9121 34.6413 18.8756 34.6767 18.828L34.6995 18.7969C34.7275 18.7585 34.7565 18.7179 34.7883 18.6715L34.8164 18.6306C34.8525 18.5773 34.8893 18.522 34.9257 18.4633C34.927 18.4612 34.9441 18.4335 34.9454 18.4314C34.9797 18.3763 35.0136 18.3189 35.0462 18.2619C35.0608 18.2365 35.075 18.2103 35.0892 18.184L35.1013 18.1618C35.1208 18.126 35.14 18.09 35.1593 18.0523C35.1792 18.0135 35.1987 17.9742 35.2175 17.9354C35.2343 17.9005 35.2506 17.8653 35.269 17.8247C35.2895 17.7795 35.3099 17.734 35.33 17.6862C35.3406 17.661 35.3505 17.6355 35.3586 17.6148C35.4085 17.4875 35.4537 17.3583 35.4926 17.2376C35.4956 17.2285 35.4988 17.2179 35.5007 17.2114C35.5026 17.2053 35.5045 17.1993 35.5064 17.1932C35.5263 17.125 35.5445 17.0557 35.5657 16.9702L35.5811 16.9058C35.5981 16.8317 35.6131 16.7569 35.6252 16.6869L35.6381 16.6068C35.7588 15.8379 35.6707 15.0893 35.3766 14.3818C34.423 12.0871 32.7962 11.8218 31.208 11.6034Z" fill="#F1F1F1"/>
<path d="M31.0485 11.4437C31.022 11.4386 30.9953 11.4342 30.9682 11.4302L25.7427 10.6708L23.405 5.93381C23.3601 5.84267 23.3163 5.75494 23.2743 5.6712C23.2352 5.59332 23.1964 5.51943 23.1591 5.44534C23.1564 5.44023 23.1467 5.42128 23.1441 5.41635C23.1028 5.33924 23.0638 5.26459 23.0279 5.1977C23.0243 5.19126 23.0137 5.17137 23.0101 5.16492C22.9671 5.08686 22.9245 5.01296 22.8887 4.95025C22.8845 4.94305 22.8741 4.92486 22.8697 4.91766C22.8252 4.84168 22.7801 4.76949 22.7363 4.70014C22.7295 4.68934 22.721 4.67608 22.7157 4.66774C22.671 4.59859 22.6255 4.53265 22.5732 4.45838C22.5647 4.44644 22.5537 4.43071 22.5463 4.42029C22.4896 4.34204 22.4311 4.26871 22.3731 4.1969C22.3671 4.18932 22.3604 4.18118 22.3538 4.17322C22.2915 4.098 22.2268 4.02694 22.1617 3.95873C22.1518 3.94831 22.1399 3.936 22.1315 3.92728C22.0633 3.85718 21.9898 3.78915 21.9131 3.72189C21.9032 3.71318 21.8924 3.7037 21.8841 3.69669C21.8026 3.6264 21.7145 3.55989 21.6376 3.50475C21.6308 3.50002 21.6156 3.48903 21.6088 3.48429C21.5173 3.4212 21.4206 3.35943 21.3204 3.30278C21.32 3.30259 21.3198 3.3024 21.3195 3.30221C21.3159 3.29993 21.3119 3.29785 21.3081 3.29576C21.2084 3.24176 21.1038 3.18852 20.9962 3.14021C20.9922 3.1385 20.9884 3.1368 20.9845 3.13509C20.528 2.93387 20.0117 2.81697 19.4069 2.7732C19.3052 2.76581 19.2047 2.76221 19.1062 2.76221C16.4604 2.76221 15.1869 5.16303 15.0475 5.44326L12.4672 10.6708L7.19495 11.4371C7.17544 11.4397 7.15592 11.4429 7.13621 11.4464C5.72123 11.6968 4.11885 11.9871 3.19061 13.8686C3.17186 13.9065 3.15291 13.9446 3.13529 13.9825C3.11407 14.0277 3.09323 14.0736 3.0775 14.11C3.03847 14.2 2.99906 14.2924 2.96059 14.3932C2.91701 14.5075 2.87817 14.628 2.84445 14.75C2.83118 14.7978 2.81811 14.8451 2.80314 14.9078C2.7895 14.9654 2.77832 15.0225 2.76885 15.0725C2.74459 15.1968 2.72584 15.3211 2.7139 15.4429C2.71333 15.4494 2.71257 15.456 2.712 15.4626C2.5428 17.2355 3.58434 18.5812 4.04003 19.0776C4.06257 19.102 4.08569 19.1257 4.10956 19.149L8.36476 23.2976L7.38215 29.0253C7.36983 29.0972 7.36188 29.1695 7.35847 29.2423C7.30011 30.4407 7.22754 31.9324 8.61316 33.2002L8.64026 33.2246C8.69937 33.2781 8.76076 33.3313 8.82575 33.384C8.84697 33.4012 8.86933 33.4191 8.89169 33.4365L9.9984 32.0168L8.90779 33.449L8.92257 33.4605C8.96577 33.4943 9.00897 33.528 9.05274 33.5598C9.13251 33.6186 9.21607 33.6773 9.30758 33.7377C9.408 33.8041 9.51468 33.8683 9.63007 33.9306C9.66569 33.9498 9.70131 33.967 9.73977 33.9858C9.81045 34.0204 9.88055 34.0551 9.94838 34.0841C9.9948 34.1042 10.0405 34.1231 10.0969 34.1432C10.0979 34.1434 10.114 34.1497 10.1151 34.1502C10.167 34.1696 10.2188 34.1896 10.272 34.2073C10.3292 34.2264 10.3857 34.244 10.4431 34.259C10.445 34.2594 10.4681 34.2662 10.47 34.2666C10.5109 34.2779 10.552 34.2893 10.5826 34.2967C10.6555 34.3145 10.7281 34.3299 10.8061 34.3448C10.8357 34.3505 10.8654 34.3562 10.8939 34.3609C10.974 34.3742 11.0534 34.3846 11.1407 34.3939L11.1862 34.3986C11.2739 34.407 11.3607 34.4121 11.4473 34.4151C11.4556 34.4155 11.4647 34.4157 11.4699 34.4159C12.3905 34.4361 13.2035 34.1658 13.7079 33.9354C13.739 33.9213 13.7693 33.9062 13.7994 33.8903L14.1727 33.6936C14.1827 33.6883 14.1928 33.683 14.2026 33.6777C14.2146 33.6716 14.2265 33.6656 14.2383 33.6593L19.106 31.1005L23.9636 33.6542C23.9709 33.658 23.978 33.6623 23.9855 33.6654C23.9859 33.6656 23.9865 33.6659 23.9871 33.6661L24.452 33.9111C24.488 33.9301 24.5248 33.9479 24.5621 33.9642C24.6138 33.9871 24.6684 34.01 24.7139 34.0286C24.7379 34.0384 24.7633 34.0485 24.7881 34.058C24.8245 34.072 24.8603 34.0862 24.8916 34.0977C24.9206 34.1085 24.9502 34.1193 24.9922 34.1336C24.9939 34.1341 25.0117 34.1404 25.0134 34.1409L25.072 34.1608C25.1146 34.1751 25.1584 34.1885 25.1987 34.2008L25.2683 34.2215C25.3175 34.2359 25.3674 34.2495 25.4257 34.2645L25.4685 34.2753C25.5271 34.2897 25.5862 34.3031 25.6495 34.3166C25.658 34.3185 25.6643 34.3196 25.673 34.3213C25.9894 34.3825 26.3049 34.4185 26.6132 34.4185C27.4438 34.4185 28.2118 34.1896 28.8956 33.7377C30.8456 32.4482 30.9313 30.9701 30.8409 29.1716C30.8371 29.0998 30.8291 29.0286 30.817 28.9579L29.8458 23.2977L34.1883 19.0649C34.2313 19.023 34.2719 18.9791 34.3105 18.9334C34.3405 18.8978 34.3734 18.857 34.4077 18.8137L34.4276 18.7881C34.4547 18.7536 34.4826 18.717 34.518 18.6695L34.5407 18.6384C34.5688 18.5997 34.5976 18.559 34.6296 18.5128L34.6576 18.472C34.6938 18.4186 34.7296 18.3627 34.767 18.3045C34.7683 18.3025 34.7854 18.275 34.7867 18.2729C34.821 18.2178 34.8549 18.16 34.8873 18.1031C34.9019 18.0777 34.9161 18.0518 34.9305 18.0254L34.9424 18.0031C34.9619 17.9673 34.9811 17.9313 35.0004 17.8936C35.0203 17.8549 35.0398 17.8155 35.0588 17.7767C35.0756 17.7418 35.0919 17.7064 35.1105 17.6658C35.131 17.6207 35.1512 17.5753 35.1715 17.5273C35.1821 17.5023 35.1918 17.4767 35.2001 17.4561C35.2501 17.3288 35.2964 17.1999 35.3341 17.0788C35.3371 17.0696 35.3403 17.0591 35.3424 17.0525C35.3441 17.0464 35.3462 17.0404 35.3479 17.0345C35.3676 16.9663 35.3862 16.8968 35.4074 16.8113L35.4227 16.7467C35.4396 16.6728 35.4548 16.598 35.4667 16.528L35.4798 16.4479C35.6005 15.6792 35.5124 14.9304 35.2183 14.2231C34.2637 11.9274 32.6367 11.6622 31.0485 11.4437Z" fill="#E2E2E2"/>
<path d="M30.8888 11.2841C30.8623 11.279 30.8356 11.2744 30.8087 11.2704L25.583 10.511L23.2453 5.77419C23.2004 5.68325 23.1568 5.59533 23.1147 5.51177C23.0757 5.4339 23.0376 5.35963 22.9995 5.28592C22.9969 5.2808 22.9872 5.26186 22.9846 5.25693C22.9444 5.17887 22.9037 5.10535 22.8682 5.03828C22.8646 5.03184 22.8542 5.01175 22.8506 5.0055C22.808 4.92744 22.7651 4.85335 22.7291 4.79083C22.725 4.78344 22.7144 4.76544 22.7102 4.75805C22.6659 4.68207 22.6206 4.61007 22.5766 4.54072C22.57 4.53011 22.5615 4.51647 22.556 4.50832C22.5113 4.43897 22.4656 4.37323 22.4133 4.29914C22.4048 4.28701 22.3938 4.27129 22.3864 4.26087C22.3297 4.1828 22.2718 4.10891 22.2134 4.03729C22.2071 4.02971 22.2007 4.02175 22.1941 4.01379C22.1317 3.93857 22.0671 3.86771 22.0019 3.79931C21.9921 3.78889 21.9802 3.77657 21.9716 3.76786C21.903 3.69794 21.8299 3.62973 21.7532 3.56228C21.7433 3.55356 21.7325 3.54409 21.7242 3.53708C21.6421 3.46754 21.5552 3.39971 21.4779 3.34495C21.471 3.34021 21.4559 3.32941 21.4491 3.32468C21.3579 3.2612 21.2609 3.19981 21.1609 3.14316C21.1605 3.14297 21.1603 3.14278 21.1599 3.14259C21.1561 3.14051 21.1523 3.13843 21.1484 3.13615C21.0491 3.0812 20.9441 3.02891 20.8365 2.98078C20.8327 2.97889 20.8287 2.97737 20.8247 2.97548C20.3666 2.77861 19.852 2.65735 19.2474 2.61358C19.1454 2.60638 19.0452 2.60278 18.9465 2.60278C16.3007 2.60278 15.0272 5.0036 14.8876 5.28365L12.3073 10.5112L7.03542 11.2773C7.01572 11.2801 6.9962 11.2833 6.97668 11.2867C5.56226 11.5401 3.96424 11.83 3.03108 13.709C3.01214 13.7469 2.99357 13.785 2.97576 13.8227C2.95454 13.8681 2.93369 13.914 2.91797 13.9502C2.87894 14.0402 2.83953 14.1326 2.80106 14.2334C2.75729 14.3477 2.71826 14.4682 2.68473 14.5902C2.67146 14.6378 2.65839 14.6851 2.64342 14.7479C2.62978 14.8055 2.61879 14.8625 2.60913 14.9123C2.58506 15.0368 2.56668 15.1613 2.55399 15.2827C2.55323 15.2892 2.55266 15.2958 2.55209 15.3024C2.38289 17.0754 3.42424 18.4208 3.88012 18.9174C3.90247 18.9417 3.92559 18.9657 3.94946 18.9888L8.20485 23.1374L7.22205 28.8652C7.20993 28.937 7.20178 29.0094 7.19818 29.0821C7.14001 30.2805 7.06744 31.7721 8.45306 33.04L8.48016 33.0645C8.53927 33.1179 8.60047 33.1711 8.66546 33.2238C8.68668 33.2411 8.70904 33.2589 8.73159 33.2763L9.83812 31.8566L8.74769 33.2886L8.76228 33.3002C8.80529 33.3339 8.84887 33.3674 8.89245 33.3995C8.97222 33.4582 9.05559 33.5167 9.14711 33.5774C9.24753 33.6439 9.35458 33.7077 9.46978 33.7701C9.5054 33.7894 9.54102 33.8064 9.57948 33.8254C9.64997 33.8601 9.72026 33.8947 9.78791 33.9239C9.83433 33.9438 9.88018 33.963 9.93645 33.983C9.93759 33.9832 9.95351 33.9897 9.95483 33.99C10.0067 34.0094 10.0583 34.0293 10.1115 34.0471C10.1689 34.0662 10.2252 34.0848 10.2828 34.099C10.2845 34.0994 10.3076 34.106 10.3095 34.1064C10.3508 34.1172 10.3916 34.1291 10.4221 34.1367C10.495 34.1545 10.5676 34.1697 10.6455 34.1846C10.675 34.1903 10.7048 34.196 10.7334 34.2007C10.8133 34.214 10.8929 34.2242 10.9803 34.2339L11.0257 34.2384C11.1135 34.2468 11.2002 34.2519 11.2868 34.2551C11.2954 34.2553 11.3043 34.2557 11.3094 34.2559C12.2297 34.2923 13.0433 34.0058 13.5474 33.7754C13.5785 33.7614 13.609 33.7464 13.6391 33.7305L14.0124 33.5338C14.0225 33.5287 14.0323 33.5232 14.0422 33.5177C14.0541 33.5118 14.066 33.5058 14.0778 33.4995L18.9455 30.9405L23.8031 33.4942C23.8105 33.498 23.8177 33.5018 23.8251 33.5054C23.8256 33.5056 23.826 33.5059 23.8266 33.5063L24.2917 33.7513C24.3277 33.7703 24.3645 33.7879 24.4018 33.8044C24.4535 33.8273 24.5083 33.8504 24.5538 33.869C24.5778 33.8788 24.6032 33.8887 24.6279 33.8982C24.6642 33.9124 24.7002 33.9264 24.7313 33.9379C24.7603 33.9487 24.7906 33.9578 24.8321 33.9738C24.8338 33.9743 24.8516 33.9806 24.8531 33.9811L24.9119 34.001C24.9545 34.0152 24.9981 34.0289 25.0385 34.041L25.1082 34.0617C25.1573 34.0759 25.2073 34.0897 25.2654 34.1045L25.3085 34.1153C25.367 34.1299 25.4259 34.1433 25.4892 34.1566C25.4979 34.1585 25.5042 34.1596 25.5129 34.1611C25.8291 34.2222 26.1448 34.2585 26.4529 34.2585C27.2837 34.2585 28.0515 34.0296 28.7355 33.5777C30.6855 32.2882 30.7714 30.8101 30.6808 29.0114C30.6772 28.9398 30.6692 28.8684 30.6573 28.7977L29.6861 23.1376L34.0288 18.9047C34.0716 18.8628 34.1124 18.8189 34.151 18.773C34.1809 18.7374 34.2139 18.6969 34.2482 18.6535L34.248 18.6533L34.2681 18.6279C34.2952 18.5932 34.323 18.5567 34.3585 18.5093L34.3812 18.4782C34.4093 18.4398 34.4381 18.399 34.4703 18.3526L34.4983 18.3119C34.5345 18.2586 34.5716 18.2033 34.6076 18.1444C34.6088 18.1425 34.6258 18.1148 34.6273 18.1127C34.6626 18.058 34.6955 18 34.7281 17.943C34.7427 17.9176 34.7569 17.8914 34.7711 17.8651L34.7833 17.8427C34.8028 17.8069 34.8219 17.7707 34.8413 17.7332C34.8611 17.6944 34.8805 17.6551 34.8994 17.6161C34.9163 17.5812 34.9326 17.546 34.951 17.5055C34.9714 17.4602 34.9917 17.4149 35.012 17.367C35.0226 17.3418 35.0324 17.3162 35.0404 17.2955C35.0904 17.168 35.1363 17.0392 35.1744 16.9183C35.1772 16.9092 35.1808 16.8986 35.1827 16.8919C35.1846 16.8859 35.1865 16.8798 35.1882 16.8739C35.2085 16.8059 35.2265 16.7364 35.2477 16.6507L35.263 16.5861C35.2799 16.5122 35.2947 16.4374 35.307 16.3673L35.3199 16.2871C35.4408 15.5184 35.3526 14.7698 35.0586 14.0623C34.1042 11.7676 32.477 11.5026 30.8888 11.2841Z" fill="#D4D4D4"/>
<path d="M30.7294 11.1248C30.7027 11.1197 30.6762 11.1151 30.6491 11.1113L25.4236 10.3519L23.0859 5.61507C23.0409 5.52393 22.9972 5.43621 22.9551 5.35246C22.9159 5.27458 22.8771 5.20107 22.8399 5.12661C22.8373 5.12149 22.8278 5.10254 22.8249 5.09762C22.7842 5.02012 22.745 4.94566 22.7086 4.87896C22.705 4.87233 22.6944 4.85244 22.6908 4.84599C22.6476 4.7685 22.6059 4.69385 22.5695 4.63151C22.5654 4.62412 22.5549 4.60612 22.5506 4.59873C22.5063 4.52256 22.4613 4.45037 22.4172 4.38141C22.4104 4.3708 22.4019 4.35734 22.3965 4.34882C22.3518 4.27966 22.3062 4.21372 22.2541 4.13964C22.2455 4.1277 22.2345 4.11197 22.227 4.10155C22.1703 4.0233 22.1125 3.94941 22.054 3.87797C22.0477 3.87058 22.0413 3.86244 22.0347 3.85448C21.9725 3.77888 21.9079 3.70821 21.8425 3.63999C21.8325 3.62957 21.8207 3.61707 21.8124 3.60854C21.744 3.53844 21.6707 3.47042 21.5939 3.40315C21.5841 3.39444 21.5733 3.38515 21.5649 3.37795C21.4833 3.30804 21.3956 3.24115 21.3184 3.18602C21.3116 3.18128 21.2965 3.17029 21.2898 3.16574C21.1987 3.10189 21.1015 3.04088 21.0015 2.98423C21.0011 2.98404 21.0009 2.98385 21.0005 2.98366C20.9965 2.98157 20.9927 2.97949 20.9889 2.97722C20.8902 2.92132 20.7849 2.86997 20.6773 2.82185C20.6733 2.82014 20.6693 2.81825 20.6653 2.81673C20.2062 2.62157 19.6926 2.49861 19.088 2.45484C18.986 2.44726 18.8856 2.44385 18.7871 2.44385C16.1415 2.44385 14.8678 4.84467 14.7284 5.12471L12.1481 10.3523L6.876 11.1185C6.85629 11.1214 6.83678 11.1246 6.81745 11.128C5.40303 11.3815 3.79989 11.6688 2.87166 13.55C2.85271 13.5879 2.83414 13.626 2.81633 13.6639C2.79511 13.7092 2.77427 13.755 2.75854 13.7914C2.71932 13.8814 2.6801 13.9739 2.64145 14.0747C2.59787 14.1891 2.55903 14.3096 2.5253 14.4317C2.51204 14.4792 2.49897 14.5266 2.484 14.5893C2.47036 14.6467 2.45918 14.7039 2.44951 14.7538C2.42526 14.8781 2.40707 15.0027 2.39457 15.1242C2.39381 15.1308 2.39324 15.1373 2.39267 15.1439C2.22347 16.9168 3.26482 18.2624 3.7205 18.7589C3.74305 18.7831 3.76617 18.807 3.78985 18.8301L8.04524 22.9786L7.06263 28.7064C7.05012 28.778 7.04236 28.8506 7.03876 28.9234C6.9804 30.1218 6.90802 31.6135 8.29345 32.8813L8.32055 32.9057C8.37966 32.959 8.44086 33.0124 8.50585 33.0651C8.52707 33.0825 8.54943 33.1003 8.57179 33.1176L9.6785 31.6978L8.58789 33.1301L8.60267 33.1416C8.64568 33.1753 8.68926 33.2089 8.73284 33.2409C8.81261 33.2996 8.89617 33.3582 8.98749 33.4188C9.08791 33.4853 9.19459 33.5494 9.31017 33.6115C9.34579 33.6308 9.38141 33.6479 9.42006 33.6668C9.49073 33.7013 9.56084 33.736 9.62867 33.7654C9.6749 33.7853 9.72095 33.8038 9.77703 33.8243C9.77817 33.8247 9.79408 33.8309 9.79541 33.8313C9.84732 33.8506 9.89905 33.8707 9.9521 33.8883C10.0095 33.9075 10.0658 33.9262 10.1234 33.9401C10.1251 33.9404 10.1484 33.9471 10.1501 33.9475C10.1914 33.9575 10.2321 33.9704 10.2627 33.9778C10.3356 33.9954 10.4082 34.0107 10.486 34.0257C10.5156 34.0314 10.5453 34.0371 10.574 34.0418C10.6539 34.0551 10.7335 34.0655 10.8208 34.075L10.8665 34.0797C10.954 34.0879 11.0408 34.0928 11.1274 34.0962C11.1357 34.0966 11.1448 34.0968 11.15 34.0969C12.0704 34.1254 12.8838 33.8468 13.3882 33.6164C13.4191 33.6022 13.4496 33.5874 13.4797 33.5715L13.853 33.3749C13.863 33.3696 13.8729 33.3641 13.8829 33.3588C13.8949 33.3527 13.9068 33.3468 13.9185 33.3406L18.7865 30.7815L23.644 33.3353C23.6514 33.3391 23.6583 33.3436 23.6658 33.3466C23.6664 33.3468 23.667 33.3472 23.6673 33.3474L24.1325 33.5922C24.1685 33.6113 24.2053 33.6289 24.2424 33.6454C24.2941 33.6684 24.3487 33.6915 24.3942 33.7098C24.4184 33.7197 24.4438 33.7296 24.4684 33.739C24.5048 33.7532 24.5408 33.7675 24.5721 33.7788C24.6011 33.7896 24.6312 33.7993 24.6727 33.8144C24.6746 33.815 24.6924 33.8213 24.6939 33.8218L24.7525 33.8417C24.7953 33.8559 24.8389 33.8694 24.8792 33.8817L24.9488 33.9025C24.9978 33.9168 25.0477 33.9302 25.106 33.9454L25.1488 33.9562C25.2076 33.9708 25.2665 33.9842 25.3298 33.9975C25.3385 33.9994 25.3448 34.0005 25.3535 34.0022C25.6693 34.0647 25.9854 34.0994 26.2935 34.0994C27.1241 34.0994 27.892 33.8705 28.576 33.4186C30.5261 32.1291 30.6119 30.6508 30.5214 28.8523C30.5178 28.7807 30.5098 28.7093 30.4977 28.6386L29.5263 22.9781L33.8688 18.7452C33.9116 18.7033 33.9524 18.6596 33.991 18.6135C34.0209 18.5779 34.0539 18.5374 34.0882 18.494L34.1081 18.4686C34.1352 18.4339 34.1629 18.3973 34.1983 18.35L34.221 18.3189C34.2491 18.2802 34.2779 18.2397 34.3099 18.1933L34.3379 18.1524C34.3741 18.0991 34.4099 18.0432 34.4471 17.985C34.4484 17.983 34.4656 17.9555 34.467 17.9534C34.5013 17.8981 34.5352 17.8407 34.5678 17.7836C34.5824 17.7582 34.5966 17.7323 34.6108 17.706L34.6229 17.6836C34.6426 17.6478 34.6616 17.6116 34.6809 17.5741C34.7008 17.5352 34.7203 17.4962 34.7392 17.4572C34.7561 17.4223 34.7724 17.3871 34.7908 17.3465C34.8112 17.3012 34.8315 17.256 34.8516 17.208C34.8622 17.1828 34.8723 17.1572 34.8802 17.1366C34.93 17.0091 34.9761 16.8802 35.0142 16.7593C35.017 16.7501 35.0204 16.7396 35.0223 16.733C35.0242 16.7269 35.0261 16.7211 35.0278 16.7148C35.0483 16.647 35.0661 16.5774 35.0873 16.4918L35.1027 16.4274C35.1197 16.3533 35.1345 16.2785 35.1466 16.2085L35.1597 16.1284C35.2804 15.3595 35.1921 14.6109 34.8982 13.9036C33.9446 11.6083 32.3176 11.3432 30.7294 11.1248Z" fill="#C5C5C5"/>
<path d="M30.5699 10.9652C30.5432 10.9601 30.5167 10.9557 30.4896 10.9517L25.2641 10.1923L22.9264 5.45548C22.8815 5.36434 22.8377 5.27662 22.7956 5.19287C22.7566 5.11481 22.7183 5.04072 22.6804 4.96702C22.678 4.9619 22.6683 4.94277 22.6655 4.93784C22.6249 4.86015 22.5855 4.78607 22.5493 4.71919C22.5457 4.71274 22.5351 4.69266 22.5315 4.68641C22.4889 4.60834 22.4462 4.53445 22.41 4.47173C22.4059 4.46434 22.3955 4.44634 22.3911 4.43914C22.3466 4.36317 22.3015 4.29117 22.2577 4.22182C22.2509 4.21121 22.2424 4.19775 22.2371 4.18923C22.1923 4.12007 22.1467 4.05413 22.0944 3.98005C22.0859 3.96792 22.0749 3.95239 22.0675 3.94197C22.0106 3.8639 21.9528 3.78982 21.8943 3.71839C21.8882 3.71081 21.8816 3.70285 21.875 3.69489C21.8124 3.61967 21.748 3.54881 21.6828 3.48041C21.673 3.46999 21.6611 3.45767 21.6527 3.44895C21.5843 3.37885 21.511 3.31083 21.4343 3.24357C21.4244 3.23485 21.4136 3.22538 21.4053 3.21837C21.3234 3.14864 21.2359 3.08157 21.1588 3.02643C21.1519 3.0215 21.1368 3.0107 21.13 3.00597C21.0388 2.9423 20.9418 2.8811 20.8416 2.82445C20.8412 2.82426 20.841 2.82407 20.8406 2.82388C20.8368 2.82161 20.8331 2.81952 20.8291 2.81744C20.7298 2.76249 20.6244 2.71114 20.5172 2.66207C20.5132 2.66037 20.5092 2.65847 20.5055 2.65677C20.0471 2.4599 19.5327 2.33864 18.9281 2.29487C18.8267 2.2871 18.7263 2.28369 18.6278 2.28369C15.982 2.28369 14.7085 4.68451 14.5689 4.96474L11.9886 10.1923L6.71632 10.9586C6.6968 10.9614 6.6771 10.9646 6.65777 10.968C5.24335 11.2214 3.64021 11.5086 2.71217 13.3901C2.69341 13.4278 2.67465 13.4661 2.65703 13.5039C2.63581 13.5492 2.61497 13.5951 2.59924 13.6313C2.56002 13.7213 2.5208 13.8139 2.48215 13.9145C2.43857 14.029 2.39992 14.1495 2.366 14.2713C2.35274 14.3189 2.33966 14.3662 2.32488 14.4291C2.31124 14.4866 2.30006 14.5436 2.2904 14.5936C2.26653 14.7179 2.24796 14.8426 2.23545 14.964C2.2347 14.9707 2.23413 14.9771 2.23337 14.9837C2.06417 16.7568 3.10552 18.1023 3.5612 18.5987C3.58356 18.6231 3.60686 18.6468 3.63055 18.6701L7.88594 22.8187L6.90314 28.5465C6.89082 28.6181 6.88286 28.6906 6.87945 28.7634C6.82091 29.9618 6.74853 31.4535 8.13415 32.7213L8.16124 32.7459C8.22036 32.7992 8.28175 32.8526 8.34655 32.9053C8.36777 32.9225 8.39013 32.9403 8.41249 32.9576L9.5192 31.5381L8.42859 32.9703L8.44337 32.9818C8.48657 33.0156 8.52996 33.0493 8.57354 33.0813C8.65331 33.14 8.73686 33.1986 8.82819 33.259C8.92861 33.3255 9.03547 33.3894 9.15086 33.4517C9.18649 33.4711 9.22211 33.4881 9.26057 33.5071C9.33124 33.5417 9.40154 33.5764 9.46918 33.6054C9.5156 33.6253 9.56183 33.6431 9.61773 33.6643C9.61886 33.6647 9.63478 33.671 9.63611 33.6713C9.68802 33.6907 9.73975 33.7107 9.7928 33.7284C9.85021 33.7473 9.90649 33.7666 9.96409 33.7803C9.96598 33.7807 9.9891 33.7873 9.9908 33.7877C10.0317 33.7989 10.0728 33.8104 10.1033 33.818C10.1763 33.8358 10.2487 33.851 10.3267 33.8659C10.3565 33.8716 10.386 33.8773 10.4147 33.882C10.4948 33.8953 10.5742 33.9059 10.6615 33.9152L10.707 33.9199C10.7947 33.9283 10.8815 33.9334 10.9681 33.9364C10.9764 33.9366 10.9855 33.937 10.9907 33.9372C11.9111 33.9654 12.7243 33.6871 13.2287 33.4567C13.2596 33.4424 13.2901 33.4277 13.3202 33.4118L13.6935 33.2151C13.7035 33.21 13.7136 33.2045 13.7234 33.199C13.7354 33.1929 13.7471 33.1868 13.7591 33.1806L18.627 30.6218L23.4845 33.1755C23.4919 33.1793 23.4991 33.1831 23.5065 33.1869C23.5069 33.187 23.5075 33.1872 23.508 33.1876L23.9732 33.4324C24.0092 33.4514 24.046 33.4692 24.0831 33.4857C24.1348 33.5086 24.1894 33.5317 24.2349 33.5503C24.2591 33.5601 24.2843 33.57 24.3091 33.5794C24.3455 33.5937 24.3815 33.6077 24.4126 33.6194C24.4416 33.6302 24.4717 33.6397 24.5134 33.655C24.5151 33.6558 24.5329 33.6619 24.5346 33.6624L24.5932 33.6823C24.6358 33.6965 24.6796 33.71 24.7199 33.7223L24.7895 33.743C24.8385 33.7572 24.8884 33.7708 24.9467 33.786L24.9895 33.7968C25.0481 33.8114 25.1072 33.8248 25.1705 33.8381C25.1792 33.84 25.1855 33.8411 25.1942 33.8428C25.5102 33.9055 25.8261 33.9402 26.1341 33.9402H26.1343C26.965 33.9402 27.7327 33.7113 28.4167 33.2592C30.3668 31.9699 30.4524 30.4916 30.3621 28.6929C30.3585 28.6213 30.3505 28.5499 30.3384 28.4792L29.3671 22.819L33.7097 18.5862C33.7527 18.5443 33.7934 18.5004 33.8319 18.4545C33.8618 18.4189 33.8946 18.3782 33.9291 18.335L33.949 18.3094C33.9761 18.2747 34.0039 18.2383 34.0394 18.1908L34.0621 18.1597C34.0903 18.121 34.1189 18.0805 34.151 18.0341L34.179 17.9931C34.2152 17.9399 34.252 17.8846 34.2883 17.8257C34.2895 17.8238 34.3067 17.7961 34.308 17.794C34.3423 17.7389 34.3763 17.6813 34.4087 17.6242C34.4232 17.5988 34.4375 17.5727 34.4519 17.5464L34.464 17.5242C34.4833 17.4884 34.5026 17.4522 34.522 17.4147C34.542 17.3758 34.5614 17.3366 34.5801 17.2978C34.597 17.2629 34.6133 17.2277 34.6319 17.1871C34.6523 17.1416 34.6728 17.0964 34.6929 17.0486C34.7035 17.0234 34.7133 16.9978 34.7215 16.9772C34.7715 16.8499 34.8177 16.7208 34.8554 16.5999C34.8585 16.5908 34.8617 16.5802 34.8636 16.5738C34.8655 16.5677 34.8674 16.5617 34.8691 16.5556C34.8893 16.4876 34.9073 16.418 34.9286 16.3326L34.9439 16.268C34.961 16.1939 34.9757 16.1191 34.9879 16.0491L35.0009 15.9692C35.1216 15.2003 35.0335 14.4517 34.7395 13.7442C33.7851 11.4487 32.1581 11.1837 30.5699 10.9652Z" fill="#B7B7B7"/>
<path d="M30.4103 10.8056C30.3838 10.8005 30.3569 10.796 30.33 10.7922L25.1047 10.0326L22.767 5.29573C22.7221 5.20479 22.6785 5.11687 22.6362 5.03331C22.5972 4.95525 22.5582 4.88173 22.521 4.80746C22.5186 4.80234 22.5087 4.7834 22.5061 4.77828C22.4655 4.7006 22.4257 4.62651 22.3899 4.55982C22.3863 4.55319 22.3757 4.53329 22.3721 4.52704C22.3291 4.44898 22.2868 4.37489 22.2508 4.31236C22.2467 4.30498 22.2361 4.28698 22.2319 4.27978C22.1868 4.20436 22.1423 4.13161 22.0985 4.06226C22.0917 4.05146 22.0832 4.03801 22.0779 4.02986C22.0331 3.96051 21.9875 3.89495 21.9354 3.82068C21.9268 3.80874 21.9159 3.79302 21.9083 3.7826C21.8516 3.70434 21.7933 3.63083 21.7351 3.55902C21.729 3.55144 21.7224 3.54348 21.7158 3.53533C21.6536 3.45992 21.5892 3.38887 21.5236 3.32085C21.5136 3.31043 21.5019 3.29811 21.4935 3.28959C21.4249 3.21967 21.3518 3.15146 21.2751 3.08401C21.2652 3.07529 21.2546 3.06601 21.2461 3.05881C21.1644 2.98908 21.0765 2.9222 20.9997 2.86687C20.9929 2.86213 20.9778 2.85133 20.9711 2.8466C20.8802 2.78255 20.7828 2.72173 20.6828 2.66508C20.6824 2.66489 20.6824 2.6647 20.682 2.6647C20.678 2.66262 20.6742 2.66034 20.6703 2.65807C20.571 2.60312 20.466 2.55083 20.3584 2.5027C20.3544 2.501 20.3506 2.4991 20.3464 2.4974C19.8894 2.29769 19.3737 2.17927 18.7691 2.1355C18.6671 2.12811 18.5669 2.12451 18.4682 2.12451C15.8226 2.12451 14.5489 4.52533 14.4095 4.80556L11.829 10.0326L6.55673 10.7988C6.53703 10.8016 6.51751 10.8047 6.498 10.8083C5.08377 11.0616 3.48063 11.349 2.5524 13.2305C2.53364 13.2682 2.51488 13.3063 2.49726 13.3444C2.47623 13.3897 2.4552 13.4355 2.43947 13.4719C2.40063 13.5619 2.36103 13.6544 2.32238 13.7552C2.2788 13.8696 2.24015 13.9901 2.20623 14.1119C2.19297 14.1595 2.18008 14.2069 2.16492 14.2696C2.15109 14.3272 2.1401 14.3842 2.13063 14.434C2.10676 14.5583 2.08838 14.683 2.07568 14.8047C2.07511 14.8111 2.07436 14.8177 2.07379 14.8244C1.90478 16.5973 2.94593 17.9429 3.40162 18.4391C3.42398 18.4636 3.44728 18.4875 3.47097 18.5108L7.72654 22.6593L6.74374 28.3869C6.73143 28.4587 6.72347 28.5311 6.72006 28.604C6.6617 29.8025 6.58913 31.294 7.97476 32.5619L8.00185 32.5864C8.06097 32.6398 8.12236 32.6931 8.18735 32.7459C8.20857 32.7634 8.23092 32.781 8.25328 32.7982L9.36 31.3787L8.26939 32.8109L8.28417 32.8223C8.32737 32.856 8.37057 32.8899 8.41433 32.9218C8.4941 32.9803 8.57766 33.039 8.66918 33.0995C8.76941 33.166 8.87646 33.2298 8.99166 33.2924C9.02728 33.3115 9.0629 33.3287 9.10137 33.3473C9.17204 33.382 9.24234 33.4167 9.30998 33.4458C9.35621 33.4657 9.40301 33.4826 9.45833 33.5048C9.45947 33.5053 9.47539 33.5114 9.47652 33.5118C9.52901 33.5294 9.58017 33.5512 9.63341 33.5688C9.69063 33.5878 9.74709 33.6069 9.80488 33.6207C9.80659 33.6211 9.82989 33.6277 9.8316 33.6281C9.87271 33.6395 9.91364 33.6509 9.94415 33.6582C10.0173 33.6761 10.0897 33.6912 10.1675 33.7062C10.1973 33.7119 10.2268 33.7175 10.2555 33.7223C10.3356 33.7355 10.415 33.7462 10.5025 33.7554L10.5478 33.7602C10.6355 33.7685 10.7223 33.7736 10.8089 33.7767C10.8172 33.7769 10.8263 33.7774 10.8315 33.7774C11.7521 33.7977 12.5651 33.5273 13.0693 33.2969C13.1004 33.2827 13.1309 33.2677 13.1608 33.252L13.5341 33.0551C13.5441 33.05 13.554 33.0445 13.564 33.039C13.576 33.0332 13.5879 33.0271 13.5997 33.0209L18.4674 30.462L23.3252 33.0157C23.3324 33.0195 23.3396 33.0239 23.3469 33.0271C23.3473 33.0271 23.3479 33.0275 23.3485 33.0277L23.8136 33.2725C23.8496 33.2914 23.8862 33.3092 23.9235 33.3255C23.9752 33.3484 24.0298 33.3718 24.0753 33.3901C24.0995 33.4 24.1247 33.4098 24.1496 33.4193C24.1859 33.4333 24.2219 33.4475 24.253 33.4591C24.282 33.4699 24.3121 33.4794 24.3538 33.4949C24.3555 33.4957 24.3733 33.5017 24.375 33.5023L24.4336 33.5222C24.4762 33.5364 24.52 33.5499 24.5601 33.5622L24.6299 33.5828C24.6789 33.5972 24.7288 33.6107 24.7871 33.6258L24.8301 33.6364C24.8887 33.6509 24.9476 33.6647 25.0111 33.6778C25.0198 33.6795 25.0261 33.6808 25.0348 33.6825C25.3503 33.7463 25.6665 33.7797 25.9748 33.7797C26.8054 33.7797 27.5732 33.5508 28.2572 33.0989C30.2072 31.8094 30.2931 30.3311 30.2027 28.5326C30.1989 28.461 30.1911 28.3895 30.179 28.3187L29.2077 22.6585L33.5503 18.4257C33.5931 18.3838 33.6339 18.3399 33.6725 18.294C33.7022 18.2584 33.7352 18.2176 33.7695 18.1744L33.7894 18.1489C33.8165 18.1142 33.8444 18.0778 33.8798 18.0303L33.9025 17.999C33.9306 17.9605 33.9594 17.92 33.9916 17.8736L34.0196 17.8326C34.0558 17.7794 34.0924 17.7241 34.1289 17.6651C34.1301 17.6631 34.1473 17.6356 34.1487 17.6333C34.1829 17.5782 34.2169 17.5206 34.2495 17.4637C34.264 17.4382 34.2783 17.4122 34.2925 17.3859L34.3046 17.3637C34.3239 17.3277 34.3432 17.2917 34.3624 17.254C34.3825 17.2151 34.4018 17.1759 34.4205 17.1371C34.4374 17.102 34.4537 17.067 34.4721 17.0264C34.4927 16.981 34.513 16.9357 34.5331 16.8879C34.5437 16.8629 34.5536 16.837 34.5617 16.8163C34.6115 16.689 34.6572 16.5599 34.6957 16.4391C34.6985 16.43 34.7019 16.4194 34.7038 16.4127C34.7057 16.4068 34.7074 16.4006 34.7093 16.3947C34.7294 16.3267 34.7476 16.2572 34.7688 16.1717L34.7841 16.1071C34.8012 16.033 34.816 15.9582 34.8283 15.8883L34.8412 15.8081C34.9619 15.0392 34.8738 14.2906 34.5797 13.5833C33.6253 11.2894 31.9983 11.0241 30.4103 10.8056Z" fill="#A8A8A8"/>
<path d="M30.2508 10.6461C30.2243 10.641 30.1976 10.6365 30.1705 10.6325L24.945 9.8731L22.6073 5.13625C22.5625 5.04531 22.5186 4.95739 22.4767 4.87364C22.4377 4.79577 22.3992 4.72188 22.3615 4.64779C22.3591 4.64268 22.3492 4.62373 22.3465 4.61861C22.3068 4.54055 22.266 4.46703 22.2302 4.40015C22.2266 4.39371 22.216 4.37362 22.2126 4.36737C22.1703 4.28912 22.1271 4.21522 22.0911 4.1527C22.087 4.14531 22.0765 4.12731 22.0722 4.11992C22.0277 4.04413 21.983 3.97175 21.9386 3.9024C21.932 3.89179 21.9235 3.87834 21.918 3.87C21.8732 3.80065 21.8276 3.73491 21.7755 3.66082C21.767 3.64889 21.756 3.63297 21.7486 3.62255C21.6919 3.54449 21.6341 3.4704 21.5754 3.39916C21.5691 3.39158 21.5627 3.38362 21.5561 3.37566C21.4935 3.30044 21.4291 3.22939 21.3639 3.16118C21.3541 3.15076 21.3423 3.13844 21.3338 3.12992C21.2652 3.06 21.1921 2.99198 21.1154 2.92434C21.1055 2.91581 21.0947 2.90615 21.0864 2.89895C21.0049 2.82903 20.9168 2.76253 20.8399 2.70701C20.833 2.70228 20.8179 2.69129 20.8112 2.68674C20.7203 2.6227 20.6231 2.56188 20.5229 2.50522C20.5225 2.50503 20.5223 2.50484 20.5219 2.50465C20.5181 2.50257 20.5143 2.50049 20.5104 2.49821C20.4116 2.44232 20.3063 2.39097 20.1985 2.34284C20.1947 2.34095 20.1907 2.33924 20.1867 2.33773C19.7286 2.14086 19.214 2.0196 18.6094 1.97564C18.5076 1.96844 18.4072 1.96484 18.3085 1.96484C15.6629 1.96484 14.3892 4.36548 14.2496 4.64571L11.6693 9.87329L6.39722 10.6395C6.37752 10.6422 6.35819 10.6454 6.33849 10.6488C4.9235 10.8993 3.32093 11.1896 2.39289 13.071C2.37394 13.1089 2.35537 13.147 2.33756 13.1849C2.31634 13.2302 2.2955 13.276 2.27977 13.3122C2.24055 13.4022 2.20133 13.4949 2.16286 13.5955C2.11929 13.7099 2.08006 13.8303 2.04653 13.9525C2.03326 14 2.02038 14.0474 2.00541 14.1101C1.99177 14.1677 1.98078 14.2247 1.97112 14.2748C1.94724 14.3989 1.92886 14.5235 1.91617 14.6452C1.9156 14.6516 1.91484 14.6583 1.91428 14.6649C1.75758 16.4389 2.78642 17.7834 3.24211 18.2797C3.26446 18.3041 3.28777 18.328 3.31145 18.3511L7.56665 22.4996L6.58385 28.2274C6.57173 28.2992 6.56358 28.3716 6.56017 28.4444C6.50181 29.6428 6.42924 31.1345 7.81486 32.4023L7.84196 32.4269C7.90108 32.4802 7.96228 32.5334 8.02727 32.5863C8.04849 32.6035 8.07084 32.6211 8.09339 32.6386L9.19992 31.219L8.1095 32.6512L8.12409 32.6628C8.1671 32.6965 8.21049 32.7301 8.25425 32.7621C8.33402 32.8206 8.41758 32.8794 8.50891 32.9398C8.60933 33.0063 8.71638 33.0702 8.83158 33.1327C8.8672 33.1518 8.90282 33.1691 8.94129 33.1878C9.01177 33.2225 9.08207 33.2572 9.1499 33.2864C9.19632 33.3063 9.24179 33.3262 9.29825 33.3453C9.29939 33.3457 9.3155 33.3519 9.31663 33.3523C9.36798 33.3733 9.42009 33.3917 9.47333 33.4093C9.53074 33.4285 9.58701 33.4474 9.64461 33.4612C9.64651 33.4616 9.66962 33.4683 9.67133 33.4686C9.71244 33.4796 9.75337 33.4916 9.78406 33.499C9.85701 33.5168 9.92939 33.5321 10.0073 33.5471C10.037 33.5528 10.0666 33.5584 10.0954 33.5632C10.1753 33.5764 10.2547 33.5869 10.3423 33.5963L10.3877 33.6009C10.4753 33.6092 10.5622 33.6138 10.6488 33.6176C10.657 33.6179 10.6663 33.6181 10.6714 33.6183C11.592 33.6467 12.4051 33.3682 12.9096 33.138C12.9405 33.1238 12.971 33.109 13.0011 33.0929L13.3744 32.8962C13.3844 32.8909 13.3943 32.8854 13.4043 32.8801C13.4163 32.8743 13.428 32.8682 13.44 32.8619L18.3079 30.3029L23.1655 32.8566C23.1727 32.8602 23.1797 32.865 23.1872 32.8678C23.1878 32.868 23.1882 32.8684 23.1888 32.8686L23.6539 33.1134C23.6899 33.1323 23.7267 33.1499 23.7638 33.1664C23.8157 33.1894 23.8703 33.2125 23.9158 33.231C23.9398 33.2409 23.9654 33.2507 23.99 33.2602C24.0264 33.2744 24.0622 33.2886 24.0935 33.3C24.1225 33.3108 24.1526 33.3203 24.1941 33.3356C24.196 33.3364 24.2136 33.3424 24.2153 33.343L24.2739 33.3629C24.3165 33.3771 24.3603 33.3906 24.4006 33.4029L24.4702 33.4235C24.5192 33.4378 24.5693 33.4514 24.6274 33.4666L24.6704 33.4772C24.729 33.4918 24.7879 33.5052 24.8514 33.5185C24.8599 33.5204 24.8664 33.5215 24.8749 33.5232C25.1909 33.5861 25.5068 33.6204 25.8151 33.6204C26.6457 33.6204 27.4135 33.3915 28.0975 32.9396C30.0477 31.6501 30.1334 30.172 30.0428 28.3733C30.0392 28.3017 30.0312 28.2303 30.0191 28.1596L29.048 22.4994L33.3906 18.2666C33.4336 18.2247 33.4741 18.1806 33.5128 18.1349C33.5427 18.0993 33.5757 18.0587 33.6098 18.0153L33.6299 17.99C33.657 17.9553 33.6848 17.9187 33.7201 17.8713L33.743 17.8403C33.7711 17.8018 33.7999 17.7611 33.8319 17.7147L33.8599 17.6739C33.8959 17.6205 33.9323 17.5648 33.9692 17.5064C33.9704 17.5045 33.9876 17.4769 33.9889 17.4748C34.0229 17.4195 34.0572 17.3619 34.0898 17.305C34.1042 17.2796 34.1184 17.2535 34.1329 17.2273L34.1449 17.205C34.1642 17.1692 34.1835 17.133 34.2029 17.0955C34.2228 17.0566 34.2423 17.0172 34.261 16.9785C34.2779 16.9437 34.2944 16.9084 34.3128 16.8679C34.3332 16.8228 34.3535 16.7771 34.3738 16.7294C34.3844 16.7042 34.3942 16.6784 34.4022 16.658C34.4524 16.5304 34.4981 16.4016 34.5361 16.2807C34.5392 16.2716 34.5424 16.261 34.5445 16.2544C34.5464 16.2485 34.5483 16.2424 34.55 16.2364C34.5704 16.1684 34.5881 16.0988 34.6093 16.0132L34.6248 15.9488C34.6417 15.8747 34.6567 15.8 34.6688 15.7299L34.6817 15.6498C34.8024 14.8811 34.7143 14.1325 34.4204 13.425C33.466 11.1297 31.839 10.8644 30.2508 10.6461Z" fill="#9A9A9A"/>
<path d="M30.0913 10.4866C30.0646 10.4813 30.0379 10.4769 30.0108 10.4729L24.7855 9.71351L22.4478 4.97667C22.4029 4.88553 22.3591 4.7978 22.317 4.71406C22.2782 4.63618 22.2395 4.56248 22.202 4.4882C22.1994 4.48309 22.1897 4.46395 22.1871 4.45902C22.1461 4.38153 22.1063 4.30745 22.0707 4.24056C22.0671 4.23393 22.0567 4.21403 22.0531 4.20778C22.0105 4.12953 21.9673 4.05582 21.9315 3.99311C21.9275 3.98591 21.9171 3.96772 21.9127 3.96033C21.868 3.88435 21.8231 3.81235 21.7793 3.743C21.7725 3.7322 21.7641 3.71875 21.7587 3.71022C21.7143 3.64088 21.6681 3.57532 21.616 3.50105C21.6076 3.48911 21.5967 3.47338 21.5891 3.46296C21.5324 3.38471 21.4744 3.311 21.4159 3.23938C21.4096 3.2318 21.4032 3.22385 21.3966 3.21589C21.3339 3.14086 21.2692 3.0698 21.2044 3.0014C21.1946 2.99098 21.1828 2.97848 21.1743 2.97014C21.1057 2.90022 21.033 2.83163 20.9559 2.76456C20.9458 2.75585 20.9352 2.74656 20.9269 2.73936C20.845 2.66945 20.7571 2.60275 20.6804 2.54723C20.6735 2.54231 20.6584 2.5317 20.6518 2.52677C20.561 2.46254 20.4636 2.4021 20.3634 2.34526C20.3632 2.34507 20.3628 2.34488 20.3624 2.34469C20.3586 2.34241 20.3548 2.34033 20.3509 2.33825C20.2514 2.2833 20.1466 2.231 20.039 2.18269C20.035 2.18098 20.031 2.17909 20.0272 2.17757C19.5699 1.97881 19.0545 1.85945 18.4497 1.81568C18.3479 1.80829 18.2475 1.80469 18.149 1.80469C15.5032 1.80469 14.2297 4.20551 14.0901 4.48574L11.5096 9.71332L6.23773 10.4797C6.21802 10.4826 6.19851 10.4858 6.17899 10.4892C4.76457 10.7425 3.16143 11.03 2.23339 12.9113C2.21444 12.9491 2.19588 12.9872 2.17807 13.0251C2.15684 13.0704 2.136 13.1163 2.12009 13.1526C2.08087 13.2425 2.04183 13.3351 2.00318 13.4359C1.9596 13.5504 1.92076 13.6707 1.88703 13.7927C1.87377 13.8402 1.8607 13.8878 1.84573 13.9503C1.83209 14.0077 1.82091 14.065 1.81124 14.1148C1.78737 14.2393 1.7688 14.3636 1.7563 14.4854C1.75554 14.4918 1.75497 14.4985 1.7544 14.5051C1.59884 16.2792 2.62655 17.6237 3.08223 18.1201C3.10478 18.1445 3.1279 18.1684 3.15158 18.1915L7.40697 22.3398L6.42417 28.0678C6.41185 28.1394 6.4039 28.212 6.40049 28.2846C6.34213 29.4832 6.26956 30.9747 7.65518 32.2425L7.68228 32.2671C7.74139 32.3204 7.80278 32.3736 7.86758 32.4265C7.8888 32.4437 7.91097 32.4615 7.93371 32.4788L9.04023 31.0592L7.94962 32.4915L7.9644 32.503C8.00741 32.5368 8.0508 32.5703 8.09457 32.6023C8.17415 32.661 8.2579 32.7196 8.34922 32.78C8.44964 32.8465 8.55651 32.9106 8.6719 32.9727C8.70752 32.9919 8.74314 33.0091 8.7816 33.0281C8.85228 33.0627 8.92257 33.0974 8.99021 33.1266C9.03645 33.1465 9.08287 33.1643 9.13857 33.1855C9.13971 33.1859 9.15562 33.1921 9.15676 33.1925C9.20849 33.2126 9.2604 33.2319 9.31364 33.2497C9.37105 33.2687 9.4279 33.2854 9.48493 33.3015C9.48682 33.3018 9.50994 33.3085 9.51164 33.309C9.55276 33.3202 9.59369 33.3318 9.62438 33.3394C9.69733 33.3572 9.76971 33.3723 9.84777 33.3873C9.87733 33.393 9.90708 33.3985 9.93569 33.4032C10.0156 33.4165 10.0952 33.4271 10.1826 33.4364L10.228 33.4409C10.3158 33.4493 10.4025 33.4544 10.4891 33.4576C10.4975 33.458 10.5066 33.4582 10.5117 33.4583C11.4323 33.4788 12.2456 33.2082 12.7498 32.978C12.7806 32.964 12.8111 32.949 12.8413 32.9331L13.2145 32.7365C13.2246 32.7311 13.2344 32.7258 13.2445 32.7203C13.2564 32.7145 13.2681 32.7082 13.2801 32.702L18.148 30.1431L23.0056 32.6969C23.0128 32.7006 23.0202 32.7044 23.0276 32.7082C23.0281 32.7086 23.0285 32.7086 23.0291 32.709L23.4942 32.9538C23.5302 32.9727 23.567 32.9905 23.6043 33.007C23.656 33.0299 23.7108 33.0529 23.7561 33.0714C23.7803 33.0815 23.8057 33.0912 23.8304 33.1008C23.8667 33.1148 23.9027 33.129 23.934 33.1406C23.963 33.1514 23.9927 33.1618 24.0346 33.1764C24.0363 33.177 24.0541 33.1832 24.0558 33.1836L24.1146 33.2037C24.157 33.2179 24.201 33.2314 24.2413 33.2437L24.3109 33.2645C24.3599 33.2787 24.41 33.2924 24.4681 33.3073L24.511 33.3181C24.5695 33.3327 24.6286 33.3462 24.6919 33.3594C24.7006 33.3613 24.7069 33.3625 24.7156 33.3642C25.0316 33.4267 25.3473 33.4614 25.6556 33.4614H25.6558C26.4864 33.4614 27.2543 33.2323 27.9381 32.7806C29.8882 31.491 29.9739 30.0128 29.8833 28.2143C29.8797 28.1425 29.8719 28.0712 29.8596 28.0004L28.8885 22.3402L33.2311 18.1074C33.2739 18.0655 33.3147 18.0215 33.3533 17.9757C33.3831 17.9401 33.4162 17.8995 33.4505 17.8559L33.4704 17.8306C33.4975 17.7959 33.5254 17.7591 33.5606 17.7118L33.5833 17.6807C33.6114 17.6422 33.6402 17.6015 33.6722 17.5551L33.7002 17.5141C33.7364 17.4609 33.7732 17.4054 33.8096 17.3468C33.8107 17.3447 33.8279 17.3173 33.8293 17.3152C33.8636 17.2599 33.8975 17.2023 33.9301 17.1454C33.9447 17.12 33.9589 17.0939 33.9731 17.0677L33.9852 17.0454C34.0045 17.0096 34.0239 16.9734 34.0432 16.9359C34.0631 16.8972 34.0826 16.8578 34.1015 16.819C34.1182 16.7841 34.1347 16.7489 34.1531 16.7081C34.1737 16.6628 34.194 16.6175 34.2143 16.5696C34.2247 16.5444 34.2347 16.5188 34.2427 16.498C34.2927 16.3707 34.3388 16.2416 34.3767 16.1207C34.3795 16.1115 34.3827 16.101 34.3848 16.0946C34.3867 16.0885 34.3886 16.0825 34.3905 16.0764C34.4108 16.0084 34.4288 15.9389 34.4498 15.8532L34.4653 15.7888C34.4824 15.7147 34.4972 15.6401 34.5093 15.57L34.5224 15.4898C34.6431 14.7209 34.555 13.9723 34.2609 13.265C33.3065 10.9701 31.6795 10.705 30.0913 10.4866Z" fill="#8B8B8B"/>
<path d="M29.9317 10.3271C29.9052 10.3221 29.8785 10.3176 29.8514 10.3136L24.6261 9.55419L22.2884 4.81754C22.2433 4.7264 22.1997 4.63868 22.1576 4.55493C22.1186 4.47706 22.0801 4.40316 22.0426 4.32908C22.0402 4.32396 22.0303 4.30502 22.0277 4.2999C21.9875 4.22222 21.9477 4.14813 21.9115 4.08144C21.9081 4.07499 21.8973 4.05491 21.8939 4.04847C21.8516 3.9704 21.8088 3.89632 21.7724 3.83379C21.7683 3.82659 21.7578 3.8084 21.7535 3.8012C21.7086 3.72541 21.6637 3.65323 21.6201 3.58388C21.6133 3.57308 21.6048 3.55963 21.5994 3.5511C21.5549 3.48175 21.5089 3.41619 21.457 3.34192C21.4484 3.32979 21.4374 3.31426 21.4299 3.30384C21.3726 3.22596 21.3152 3.15188 21.2569 3.08026C21.2508 3.07268 21.2442 3.06472 21.2376 3.05676C21.1748 2.98192 21.1108 2.91068 21.0456 2.84228C21.0356 2.83167 21.0238 2.81954 21.0153 2.81083C20.9467 2.74091 20.8738 2.67289 20.7968 2.60544C20.787 2.59672 20.7764 2.58725 20.7678 2.58024C20.6858 2.5107 20.5983 2.44363 20.5215 2.38811C20.5147 2.38318 20.4996 2.37238 20.4927 2.36765C20.4018 2.30398 20.3046 2.24278 20.2045 2.18632C20.2042 2.18594 20.204 2.18594 20.2036 2.18575C20.1998 2.18348 20.1958 2.18139 20.192 2.17912C20.0931 2.12323 19.9872 2.07283 19.8802 2.02375C19.8762 2.02205 19.8724 2.02015 19.8682 2.01864C19.4093 1.82348 18.8955 1.70051 18.2909 1.65655C18.1889 1.64916 18.0887 1.64575 17.9902 1.64575C15.3444 1.64575 14.0709 4.04638 13.9313 4.3268L11.3504 9.554L6.07814 10.3202C6.05844 10.3231 6.03911 10.3263 6.0196 10.3299C4.60593 10.5876 3.00204 10.8705 2.07381 12.7519C2.05505 12.7896 2.03629 12.8279 2.01848 12.8658C1.99726 12.9109 1.97642 12.9568 1.96069 12.9931C1.92147 13.083 1.88225 13.1756 1.8436 13.2764C1.80002 13.3908 1.76136 13.5114 1.72745 13.6334C1.71437 13.6809 1.7013 13.7283 1.68633 13.7912C1.6725 13.8486 1.66151 13.9056 1.65185 13.9555C1.62797 14.0798 1.60941 14.2044 1.59671 14.3261C1.59614 14.3327 1.59538 14.3392 1.59482 14.3458C1.42562 16.1187 2.46715 17.4643 2.92265 17.9608C2.9452 17.9852 2.96831 18.0089 2.992 18.0322L7.24738 22.1807L6.26458 27.9085C6.25227 27.9801 6.24431 28.0525 6.24071 28.1255C6.18254 29.3239 6.10978 30.8156 7.49541 32.0834L7.5225 32.1078C7.58162 32.1612 7.64301 32.2145 7.708 32.2674C7.72922 32.2846 7.75157 32.3022 7.77393 32.3196L8.88046 30.9001L7.78985 32.3323L7.80463 32.3439C7.84764 32.3778 7.89103 32.4114 7.93479 32.4434C8.01456 32.5021 8.09793 32.5605 8.18945 32.6211C8.28987 32.6876 8.39673 32.7515 8.51212 32.8138C8.54774 32.8329 8.58336 32.8502 8.62183 32.8691C8.69231 32.9038 8.76261 32.9385 8.83025 32.9675C8.87667 32.9874 8.92347 33.0042 8.9788 33.0264C8.97993 33.027 8.99585 33.033 8.99698 33.0336C9.0489 33.0529 9.10063 33.0732 9.15387 33.0906C9.21109 33.1098 9.26793 33.1272 9.32515 33.1423C9.32686 33.1429 9.35016 33.1494 9.35187 33.1497C9.39336 33.16 9.43391 33.1727 9.46442 33.18C9.53736 33.1979 9.60993 33.2128 9.68781 33.228C9.71755 33.2337 9.74711 33.2394 9.77572 33.2441C9.85587 33.2574 9.93526 33.268 10.0226 33.2772L10.0681 33.282C10.1558 33.2903 10.2426 33.2952 10.3292 33.2985C10.3373 33.2988 10.3466 33.2992 10.3517 33.2992C11.2718 33.3356 12.0854 33.0489 12.5898 32.8187C12.6207 32.8045 12.6514 32.7897 12.6815 32.7738L13.0546 32.5771C13.0646 32.5718 13.0745 32.5665 13.0845 32.561C13.0964 32.555 13.1082 32.5491 13.1201 32.5428L17.9881 29.9838L22.8456 32.5377C22.853 32.5415 22.8608 32.5446 22.8676 32.5489C22.868 32.5493 22.8685 32.5493 22.8689 32.5497L23.3341 32.7945C23.3703 32.8136 23.4068 32.8312 23.4442 32.8477C23.4959 32.8706 23.5505 32.8938 23.5959 32.9121C23.6202 32.922 23.6454 32.9318 23.67 32.9413C23.7066 32.9553 23.7424 32.9697 23.7735 32.9813C23.8025 32.9921 23.8322 33.0031 23.8743 33.0171C23.876 33.0177 23.8938 33.0239 23.8955 33.0245L23.954 33.0444C23.9967 33.0588 24.0402 33.0722 24.0808 33.0846L24.1503 33.1052C24.1994 33.1194 24.2492 33.1331 24.3074 33.1482L24.3504 33.159C24.409 33.1736 24.4681 33.1865 24.5312 33.2001C24.5399 33.202 24.5461 33.2034 24.5549 33.2051C24.8705 33.2695 25.1866 33.3021 25.4948 33.3021C26.3255 33.3021 27.0934 33.0734 27.7772 32.6215C29.7275 31.3317 29.8131 29.8536 29.7228 28.0552C29.719 27.9834 29.7112 27.9121 29.6991 27.8412L28.7278 22.1811L33.0704 17.9484C33.1134 17.9066 33.1541 17.8626 33.1928 17.8168C33.2227 17.7811 33.2557 17.7404 33.29 17.6972L33.3099 17.6716C33.337 17.6371 33.3648 17.6006 33.4002 17.5532L33.423 17.5221C33.451 17.4837 33.4796 17.4429 33.5118 17.3965L33.5399 17.3556C33.5761 17.3025 33.6138 17.2476 33.6492 17.1883C33.6503 17.1864 33.6676 17.1585 33.6689 17.1566C33.7032 17.1015 33.7371 17.0439 33.7695 16.9869C33.7839 16.9615 33.7983 16.9355 33.8125 16.909L33.8247 16.8868C33.844 16.851 33.8635 16.8148 33.8826 16.7773C33.9025 16.7385 33.9219 16.6992 33.9408 16.6604C33.9577 16.6255 33.9742 16.5903 33.9925 16.5498C34.0132 16.5045 34.0335 16.459 34.0536 16.4112C34.0642 16.386 34.074 16.3605 34.0822 16.3396C34.1324 16.2125 34.178 16.0833 34.2161 15.9626C34.219 15.9533 34.2224 15.9429 34.2245 15.9364C34.2264 15.9302 34.2282 15.9243 34.2299 15.9182C34.2498 15.8502 34.2682 15.7807 34.2894 15.6952L34.3048 15.6306C34.3217 15.5565 34.3368 15.4817 34.3488 15.4118L34.3618 15.3316C34.4823 14.5627 34.3942 13.8141 34.1004 13.1066C33.1467 10.8106 31.5199 10.5455 29.9317 10.3271Z" fill="#7D7D7D"/>
<path d="M29.7721 10.1673C29.7456 10.1624 29.7188 10.1577 29.6917 10.1539L24.4663 9.39447L22.1285 4.65744C22.0838 4.56649 22.04 4.47858 21.998 4.39483C21.9589 4.31696 21.9201 4.24306 21.8828 4.16898C21.8801 4.16386 21.8705 4.14491 21.868 4.13999C21.828 4.06192 21.7873 3.98822 21.7517 3.92133C21.7483 3.91489 21.7376 3.89481 21.734 3.88856C21.6908 3.81087 21.6488 3.73641 21.6126 3.67388C21.6084 3.66649 21.598 3.64849 21.5936 3.64129C21.5487 3.5655 21.5042 3.49312 21.4603 3.42378C21.4534 3.41317 21.4451 3.39971 21.4396 3.39119C21.3949 3.32184 21.3492 3.25628 21.2971 3.1822C21.2886 3.17007 21.2776 3.15435 21.27 3.14392C21.2134 3.06586 21.1552 2.99216 21.0968 2.92035C21.0908 2.91277 21.0841 2.90481 21.0775 2.89685C21.015 2.82182 20.9506 2.75058 20.8854 2.68237C20.8753 2.67195 20.8636 2.65963 20.8553 2.65091C20.7867 2.581 20.7135 2.51279 20.6368 2.44552C20.6269 2.43681 20.6161 2.42733 20.6078 2.42032C20.526 2.35079 20.4384 2.28352 20.3615 2.2282C20.3547 2.22346 20.3395 2.21247 20.3327 2.20773C20.2414 2.14426 20.1446 2.08287 20.0443 2.02622C20.0439 2.02603 20.0437 2.02603 20.0434 2.02584C20.0396 2.02376 20.0356 2.02129 20.0318 2.01921C19.9325 1.96426 19.8277 1.91216 19.7199 1.86384C19.716 1.86213 19.7122 1.86043 19.7082 1.85872C19.2517 1.6575 18.7354 1.5406 18.1308 1.49683C18.0289 1.48925 17.9285 1.48584 17.8299 1.48584C15.1841 1.48584 13.9107 3.88666 13.7712 4.16689L11.191 9.39447L5.91868 10.1605C5.89916 10.1634 5.87964 10.1666 5.86013 10.17C4.44552 10.4233 2.8475 10.7132 1.91453 12.5922C1.89577 12.6301 1.87682 12.6682 1.8592 12.7061C1.83798 12.7514 1.81714 12.7972 1.80141 12.8336C1.76238 12.9236 1.72297 13.0161 1.68451 13.1169C1.64093 13.2311 1.60209 13.3516 1.56836 13.4736C1.5551 13.5212 1.54202 13.5686 1.52706 13.6313C1.51322 13.6889 1.50223 13.7459 1.49276 13.7958C1.4687 13.9202 1.45051 14.0445 1.43781 14.1662C1.43724 14.1726 1.43649 14.1794 1.43592 14.1859C1.28036 15.9599 2.30826 17.3044 2.76375 17.8007C2.78611 17.8251 2.80941 17.8488 2.83329 17.8721L7.08868 22.0206L6.10588 27.7484C6.09356 27.8202 6.08541 27.8926 6.082 27.9654C6.02383 29.1638 5.95108 30.6555 7.3367 31.9233L7.36379 31.9479C7.42291 32.0013 7.4843 32.0546 7.54929 32.1073C7.57051 32.1245 7.59287 32.1423 7.61522 32.1597L8.72194 30.74L7.63133 32.1722L7.64611 32.1838C7.68893 32.2175 7.73232 32.2511 7.77628 32.2831C7.85604 32.3416 7.9396 32.4004 8.03093 32.4608C8.13135 32.5273 8.23802 32.5915 8.35341 32.6537C8.38903 32.6728 8.42465 32.6901 8.46312 32.7088C8.53379 32.7435 8.60409 32.7782 8.67173 32.8072C8.71815 32.8271 8.76362 32.847 8.82028 32.8663C8.82141 32.8667 8.83733 32.8727 8.83846 32.8733C8.88962 32.8949 8.94211 32.9127 8.99535 32.9303C9.05276 32.9495 9.10941 32.9669 9.16663 32.982C9.16834 32.9826 9.19145 32.9891 9.19335 32.9896C9.23465 32.9997 9.27539 33.0124 9.30609 33.0198C9.37884 33.0376 9.45141 33.0527 9.52948 33.0677C9.55903 33.0734 9.58878 33.0793 9.61739 33.0838C9.69735 33.0969 9.77693 33.1075 9.86428 33.1168L9.90975 33.1215C9.99747 33.1298 10.0843 33.135 10.1708 33.138C10.1792 33.1384 10.1883 33.1387 10.1934 33.1387C11.114 33.1672 11.9273 32.8886 12.4315 32.6582C12.4625 32.644 12.493 32.6293 12.523 32.6131L12.8962 32.4165C12.9063 32.4114 12.9163 32.4059 12.9262 32.4004C12.9381 32.3945 12.95 32.3884 12.9618 32.3822L17.8296 29.8233L22.6871 32.3771C22.6945 32.3809 22.7013 32.3854 22.7091 32.3884C22.7096 32.3886 22.71 32.3888 22.7106 32.389L23.1757 32.634C23.2118 32.6529 23.2485 32.6707 23.2858 32.6872C23.3376 32.71 23.3923 32.7329 23.4376 32.7516C23.4617 32.7615 23.4871 32.7715 23.5119 32.781C23.5483 32.7952 23.5843 32.8092 23.6153 32.8206C23.6443 32.8314 23.6743 32.8418 23.7161 32.8564C23.7178 32.857 23.7356 32.8633 23.7373 32.8638L23.7959 32.8837C23.8385 32.8979 23.8821 32.9116 23.9225 32.9237L23.9922 32.9443C24.0413 32.9587 24.0911 32.9722 24.1495 32.9874L24.1923 32.9982C24.251 33.0126 24.3099 33.0262 24.3732 33.0395C24.3819 33.0414 24.3884 33.0425 24.3969 33.0442C24.7129 33.1071 25.0288 33.1414 25.3371 33.1414C26.1677 33.1414 26.9355 32.9125 27.6195 32.4606C29.5695 31.1711 29.6552 29.693 29.5648 27.8943C29.561 27.8227 29.5531 27.7513 29.5409 27.6806L28.5697 22.0206L32.9122 17.7878C32.9552 17.7459 32.9958 17.7021 33.0344 17.6561C33.0644 17.6205 33.0973 17.5797 33.1316 17.5365L33.1515 17.5111C33.1786 17.4765 33.2067 17.4399 33.2419 17.3925L33.2647 17.3615C33.2927 17.323 33.3215 17.2823 33.3535 17.2358L33.3816 17.1949C33.4177 17.1417 33.4539 17.086 33.4909 17.0274C33.492 17.0255 33.5093 16.9979 33.5106 16.9956C33.5449 16.9404 33.5788 16.8829 33.6114 16.8258C33.6258 16.8004 33.6402 16.7743 33.6544 16.7479L33.6663 16.7258C33.6859 16.69 33.705 16.654 33.7243 16.6163C33.7442 16.5774 33.7637 16.5382 33.7827 16.4994C33.7993 16.4645 33.8158 16.4293 33.8342 16.3885C33.8547 16.3432 33.8749 16.2979 33.8952 16.25C33.9058 16.225 33.9157 16.1992 33.9238 16.1786C33.9739 16.0513 34.0195 15.9222 34.0576 15.8013C34.0606 15.7921 34.064 15.7816 34.0659 15.7752C34.0678 15.7691 34.0697 15.7631 34.0714 15.757C34.0917 15.689 34.1097 15.6194 34.1309 15.5338L34.1463 15.4694C34.1631 15.3953 34.1783 15.3206 34.1902 15.2505L34.2033 15.1704C34.324 14.4015 34.2359 13.6531 33.9418 12.9456C32.9875 10.6509 31.3603 10.3858 29.7721 10.1673Z" fill="#6E6E6E"/>
<path d="M29.6127 10.0079C29.5862 10.0028 29.5595 9.99825 29.5324 9.99446L24.3069 9.23486L21.9691 4.49802C21.9242 4.40707 21.8805 4.31915 21.8386 4.23541C21.7996 4.15753 21.7615 4.08326 21.7234 4.00955C21.7209 4.00444 21.7111 3.98549 21.7084 3.98056C21.6681 3.90269 21.6285 3.82861 21.5921 3.76191C21.5887 3.75547 21.5779 3.73538 21.5745 3.72913C21.5318 3.65107 21.4896 3.57679 21.453 3.51446C21.4488 3.50707 21.4384 3.48907 21.4341 3.48168C21.3895 3.40589 21.3446 3.33351 21.3007 3.26435C21.2939 3.25355 21.2853 3.24029 21.28 3.23176C21.2353 3.16242 21.19 3.09648 21.1373 3.02258C21.129 3.01046 21.1178 2.99492 21.1104 2.98431C21.0538 2.90625 20.996 2.83216 20.9373 2.76092C20.931 2.75334 20.9246 2.74538 20.9179 2.73743C20.8554 2.6624 20.7912 2.59096 20.7258 2.52294C20.716 2.51252 20.7042 2.50021 20.6957 2.49149C20.6271 2.42157 20.5543 2.35298 20.4772 2.2861C20.4674 2.27738 20.4566 2.26791 20.4482 2.2609C20.3664 2.19117 20.2792 2.12353 20.2017 2.06877C20.1949 2.06385 20.1797 2.05305 20.1731 2.04831C20.082 1.98465 19.985 1.92345 19.8847 1.8668C19.8844 1.86661 19.8842 1.86642 19.8838 1.86623C19.88 1.86414 19.8762 1.86187 19.8722 1.85978C19.7733 1.80427 19.6684 1.75197 19.5604 1.70442C19.5564 1.70271 19.5524 1.70082 19.5484 1.6993C19.0914 1.49941 18.5757 1.38117 17.9711 1.33722C17.8693 1.32983 17.7689 1.32642 17.6702 1.32642C15.0245 1.32642 13.7509 3.72724 13.6115 4.00728L11.0312 9.23486L5.7591 10.0011C5.73939 10.0039 5.71987 10.007 5.70055 10.0106C4.28613 10.2639 2.68299 10.5513 1.75495 12.4326C1.736 12.4705 1.71743 12.5086 1.69981 12.5465C1.67859 12.5918 1.65756 12.6374 1.64202 12.6738C1.60242 12.7636 1.56358 12.8563 1.52512 12.9571C1.48154 13.0715 1.44251 13.1918 1.40897 13.3138C1.39571 13.3614 1.38301 13.409 1.36766 13.4717C1.35421 13.5293 1.34284 13.5863 1.33337 13.6361C1.30912 13.7604 1.29055 13.8849 1.27823 14.0066C1.27747 14.013 1.27691 14.0196 1.27634 14.0263C1.10714 15.7992 2.14849 17.1448 2.60436 17.641C2.62672 17.6655 2.65002 17.6894 2.67371 17.7125L6.9291 21.861L5.9463 27.5888C5.93398 27.6604 5.92602 27.733 5.92242 27.8057C5.86406 29.0042 5.7915 30.4957 7.17712 31.7637L7.20421 31.7881C7.26333 31.8415 7.32453 31.8948 7.38952 31.9476C7.41074 31.9649 7.4331 31.9827 7.45564 31.9999L8.56217 30.5802L7.47156 32.0124L7.48634 32.024C7.52935 32.0577 7.57274 32.0913 7.61651 32.1233C7.69627 32.182 7.77983 32.2406 7.87116 32.3012C7.97158 32.3677 8.07863 32.4316 8.19383 32.4941C8.22964 32.5132 8.26489 32.5308 8.30354 32.5492C8.37383 32.5845 8.44432 32.6186 8.51215 32.6477C8.55838 32.6676 8.60461 32.6856 8.66051 32.7069C8.66164 32.7072 8.67756 32.7135 8.67888 32.7139C8.73061 32.7338 8.78253 32.7533 8.83577 32.7709C8.89299 32.7898 8.94983 32.8065 9.00705 32.8226C9.00895 32.8232 9.03206 32.8296 9.03377 32.8302C9.0747 32.8418 9.11581 32.8531 9.14632 32.8603C9.21926 32.8785 9.29183 32.8935 9.36971 32.9083C9.39926 32.9141 9.42901 32.9196 9.45762 32.9244C9.53758 32.9376 9.61716 32.9481 9.70451 32.9575L9.74998 32.9621C9.83771 32.9704 9.92448 32.9759 10.0111 32.9788C10.0194 32.9791 10.0285 32.9793 10.0336 32.9795C10.9543 33.0047 11.7675 32.7294 12.2719 32.4992C12.3028 32.485 12.3333 32.47 12.3634 32.4541L12.7367 32.2574C12.7467 32.2521 12.7565 32.2468 12.7666 32.2413C12.7785 32.2354 12.7903 32.2294 12.8022 32.2231L17.67 29.6643L22.5275 32.218C22.5349 32.2218 22.5421 32.2256 22.5493 32.2292C22.5499 32.2294 22.5503 32.2298 22.5508 32.23L23.016 32.4749C23.052 32.4939 23.0885 32.5117 23.1259 32.528C23.1776 32.5509 23.2324 32.574 23.2778 32.5926C23.3019 32.6025 23.3273 32.6125 23.3521 32.6218C23.3883 32.6362 23.4243 32.65 23.4556 32.6616C23.4845 32.6724 23.5143 32.6828 23.5562 32.6974C23.5581 32.698 23.5759 32.7042 23.5774 32.7048L23.6359 32.7247C23.6786 32.7389 23.7221 32.7523 23.7625 32.7646L23.832 32.7853C23.8811 32.7995 23.9311 32.8132 23.9893 32.8281L24.0323 32.8387C24.0909 32.8533 24.15 32.8668 24.2133 32.88C24.222 32.8819 24.2282 32.8831 24.2368 32.8848C24.5524 32.9492 24.8687 32.982 25.1767 32.982C26.0074 32.982 26.7753 32.7531 27.4593 32.3012C29.4094 31.0116 29.4952 29.5334 29.4047 27.7349C29.4011 27.6633 29.3931 27.5918 29.3812 27.5212L28.4099 21.861L32.7525 17.6282C32.7955 17.5863 32.836 17.5423 32.8747 17.4965C32.9046 17.4609 32.9376 17.4203 32.9719 17.3769L32.9717 17.3767L32.9918 17.3513C33.0189 17.3167 33.0467 17.2801 33.0821 17.2327L33.1049 17.2017C33.1329 17.1632 33.1617 17.1225 33.1937 17.076L33.2218 17.0351C33.2578 16.9819 33.2942 16.9262 33.3311 16.8676C33.3322 16.8655 33.3495 16.8381 33.3508 16.8358C33.3849 16.7805 33.4192 16.723 33.4516 16.666C33.4662 16.6406 33.4804 16.6145 33.4948 16.5881L33.5068 16.566C33.5263 16.5302 33.5454 16.494 33.5647 16.4565C33.5846 16.4176 33.6041 16.3784 33.6229 16.3396C33.6398 16.3047 33.6561 16.2694 33.6744 16.2289C33.6951 16.1836 33.7154 16.1383 33.7355 16.0904C33.7461 16.0654 33.7561 16.0396 33.7639 16.019C33.815 15.892 33.8607 15.7628 33.8978 15.6417C33.9009 15.6326 33.9043 15.622 33.9062 15.6156C33.9081 15.6095 33.91 15.6034 33.9117 15.5976C33.9319 15.5294 33.9499 15.46 33.9712 15.3744L33.9865 15.3098C34.0034 15.2357 34.0185 15.161 34.0305 15.0909L34.0433 15.0108C34.164 14.2421 34.0759 13.4935 33.7819 12.786C32.8277 10.4914 31.2007 10.2262 29.6127 10.0079Z" fill="#606060"/>
<path d="M29.6127 10.0079C29.5862 10.0028 29.5595 9.99825 29.5324 9.99446L24.3069 9.23486L21.9691 4.49802C21.9242 4.40707 21.8805 4.31915 21.8386 4.23541C21.7996 4.15753 21.7615 4.08326 21.7234 4.00955C21.7209 4.00444 21.7111 3.98549 21.7084 3.98056C21.6681 3.90269 21.6285 3.82861 21.5921 3.76191C21.5887 3.75547 21.5779 3.73538 21.5745 3.72913C21.5318 3.65107 21.4896 3.57679 21.453 3.51446C21.4488 3.50707 21.4384 3.48907 21.4341 3.48168C21.3895 3.40589 21.3446 3.33351 21.3007 3.26435C21.2939 3.25355 21.2853 3.24029 21.28 3.23176C21.2353 3.16242 21.19 3.09648 21.1373 3.02258C21.129 3.01046 21.1178 2.99492 21.1104 2.98431C21.0538 2.90625 20.996 2.83216 20.9373 2.76092C20.931 2.75334 20.9246 2.74538 20.9179 2.73743C20.8554 2.6624 20.7912 2.59096 20.7258 2.52294C20.716 2.51252 20.7042 2.50021 20.6957 2.49149C20.6271 2.42157 20.5543 2.35298 20.4772 2.2861C20.4674 2.27738 20.4566 2.26791 20.4482 2.2609C20.3664 2.19117 20.2792 2.12353 20.2017 2.06877C20.1949 2.06385 20.1797 2.05305 20.1731 2.04831C20.082 1.98465 19.985 1.92345 19.8847 1.8668C19.8844 1.86661 19.8842 1.86642 19.8838 1.86623C19.88 1.86414 19.8762 1.86187 19.8722 1.85978C19.7733 1.80427 19.6684 1.75197 19.5604 1.70442C19.5564 1.70271 19.5524 1.70082 19.5484 1.6993C19.0914 1.49941 18.5757 1.38117 17.9711 1.33722C17.8693 1.32983 17.7689 1.32642 17.6702 1.32642C15.0245 1.32642 13.7509 3.72724 13.6115 4.00728L11.0312 9.23486L5.7591 10.0011C5.73939 10.0039 5.71987 10.007 5.70055 10.0106C4.28613 10.2639 2.68299 10.5513 1.75495 12.4326C1.736 12.4705 1.71743 12.5086 1.69981 12.5465C1.67859 12.5918 1.65756 12.6374 1.64202 12.6738C1.60242 12.7636 1.56358 12.8563 1.52512 12.9571C1.48154 13.0715 1.44251 13.1918 1.40897 13.3138C1.39571 13.3614 1.38301 13.409 1.36766 13.4717C1.35421 13.5293 1.34284 13.5863 1.33337 13.6361C1.30912 13.7604 1.29055 13.8849 1.27823 14.0066C1.27747 14.013 1.27691 14.0196 1.27634 14.0263C1.10714 15.7992 2.14849 17.1448 2.60436 17.641C2.62672 17.6655 2.65002 17.6894 2.67371 17.7125L6.9291 21.861L5.9463 27.5888C5.93398 27.6604 5.92602 27.733 5.92242 27.8057C5.86406 29.0042 5.7915 30.4957 7.17712 31.7637L7.20421 31.7881C7.26333 31.8415 7.32453 31.8948 7.38952 31.9476C7.41074 31.9649 7.4331 31.9827 7.45564 31.9999L8.56217 30.5802L7.47156 32.0124L7.48634 32.024C7.52935 32.0577 7.57274 32.0913 7.61651 32.1233C7.69627 32.182 7.77983 32.2406 7.87116 32.3012C7.97158 32.3677 8.07863 32.4316 8.19383 32.4941C8.22964 32.5132 8.26489 32.5308 8.30354 32.5492C8.37383 32.5845 8.44432 32.6186 8.51215 32.6477C8.55838 32.6676 8.60461 32.6856 8.66051 32.7069C8.66164 32.7072 8.67756 32.7135 8.67888 32.7139C8.73061 32.7338 8.78253 32.7533 8.83577 32.7709C8.89299 32.7898 8.94983 32.8065 9.00705 32.8226C9.00895 32.8232 9.03206 32.8296 9.03377 32.8302C9.0747 32.8418 9.11581 32.8531 9.14632 32.8603C9.21926 32.8785 9.29183 32.8935 9.36971 32.9083C9.39926 32.9141 9.42901 32.9196 9.45762 32.9244C9.53758 32.9376 9.61716 32.9481 9.70451 32.9575L9.74998 32.9621C9.83771 32.9704 9.92448 32.9759 10.0111 32.9788C10.0194 32.9791 10.0285 32.9793 10.0336 32.9795C10.9543 33.0047 11.7675 32.7294 12.2719 32.4992C12.3028 32.485 12.3333 32.47 12.3634 32.4541L12.7367 32.2574C12.7467 32.2521 12.7565 32.2468 12.7666 32.2413C12.7785 32.2354 12.7903 32.2294 12.8022 32.2231L17.67 29.6643L22.5275 32.218C22.5349 32.2218 22.5421 32.2256 22.5493 32.2292C22.5499 32.2294 22.5503 32.2298 22.5508 32.23L23.016 32.4749C23.052 32.4939 23.0885 32.5117 23.1259 32.528C23.1776 32.5509 23.2324 32.574 23.2778 32.5926C23.3019 32.6025 23.3273 32.6125 23.3521 32.6218C23.3883 32.6362 23.4243 32.65 23.4556 32.6616C23.4845 32.6724 23.5143 32.6828 23.5562 32.6974C23.5581 32.698 23.5759 32.7042 23.5774 32.7048L23.6359 32.7247C23.6786 32.7389 23.7221 32.7523 23.7625 32.7646L23.832 32.7853C23.8811 32.7995 23.9311 32.8132 23.9893 32.8281L24.0323 32.8387C24.0909 32.8533 24.15 32.8668 24.2133 32.88C24.222 32.8819 24.2282 32.8831 24.2368 32.8848C24.5524 32.9492 24.8687 32.982 25.1767 32.982C26.0074 32.982 26.7753 32.7531 27.4593 32.3012C29.4094 31.0116 29.4952 29.5334 29.4047 27.7349C29.4011 27.6633 29.3931 27.5918 29.3812 27.5212L28.4099 21.861L32.7525 17.6282C32.7955 17.5863 32.836 17.5423 32.8747 17.4965C32.9046 17.4609 32.9376 17.4203 32.9719 17.3769L32.9717 17.3767L32.9918 17.3513C33.0189 17.3167 33.0467 17.2801 33.0821 17.2327L33.1049 17.2017C33.1329 17.1632 33.1617 17.1225 33.1937 17.076L33.2218 17.0351C33.2578 16.9819 33.2942 16.9262 33.3311 16.8676C33.3322 16.8655 33.3495 16.8381 33.3508 16.8358C33.3849 16.7805 33.4192 16.723 33.4516 16.666C33.4662 16.6406 33.4804 16.6145 33.4948 16.5881L33.5068 16.566C33.5263 16.5302 33.5454 16.494 33.5647 16.4565C33.5846 16.4176 33.6041 16.3784 33.6229 16.3396C33.6398 16.3047 33.6561 16.2694 33.6744 16.2289C33.6951 16.1836 33.7154 16.1383 33.7355 16.0904C33.7461 16.0654 33.7561 16.0396 33.7639 16.019C33.815 15.892 33.8607 15.7628 33.8978 15.6417C33.9009 15.6326 33.9043 15.622 33.9062 15.6156C33.9081 15.6095 33.91 15.6034 33.9117 15.5976C33.9319 15.5294 33.9499 15.46 33.9712 15.3744L33.9865 15.3098C34.0034 15.2357 34.0185 15.161 34.0305 15.0909L34.0433 15.0108C34.164 14.2421 34.0759 13.4935 33.7819 12.786C32.8277 10.4914 31.2007 10.2262 29.6127 10.0079Z" fill="white"/>
<path d="M32.1194 13.4774C31.5647 12.1427 30.872 11.9972 29.2734 11.7782V11.7757L23.1113 10.8803L20.3546 5.29457C19.6405 3.84794 19.2836 3.23708 17.8417 3.13268C16.1258 3.00895 15.2402 4.77465 15.2254 4.80421L12.2268 10.8801L6.01793 11.7823C4.41688 12.0692 3.72321 12.2475 3.20633 13.5994C2.70574 14.9087 3.57391 16.0362 3.92974 16.4239L8.86269 21.2329L7.71997 27.8935C7.64892 29.3572 7.71126 30.0379 8.86363 30.8002C9.85079 31.4524 10.9344 31.131 11.5237 30.862L11.8969 30.6653C11.9407 30.6389 11.9657 30.6223 11.9657 30.6223L11.9642 30.63L17.6696 27.6309L23.3646 30.6249L23.3642 30.6223C23.3642 30.6223 23.3737 30.6281 23.3889 30.6376L23.854 30.8824C24.452 31.1469 25.5042 31.4359 26.4663 30.8004C27.6365 30.0266 27.6827 29.3363 27.6068 27.826L26.4756 21.2331L31.4959 16.3397C31.8347 15.9339 32.6562 14.7683 32.1194 13.4774Z" fill="#C4C4CE"/>
<g opacity="0.5">
<path d="M18.0154 10.5346C18.0154 13.3157 17.8519 16.107 17.9395 18.8877C19.28 15.9649 21.119 13.3515 23.0789 10.8143L20.3549 5.29472C19.6711 3.90948 19.312 3.29179 18.0153 3.15063L18.0154 10.5346Z" fill="#C4C4CE"/>
<path d="M22.3905 23.1126C21.3373 23.0893 20.3164 23.253 19.2858 23.4826C18.7561 23.6001 18.2337 23.7067 17.7014 23.7422C17.652 24.0427 17.6162 24.346 17.59 24.6488C17.5806 25.6623 17.565 26.6749 17.5607 27.6883L17.6698 27.6309L23.3648 30.625L23.3644 30.6223C23.3644 30.6223 23.3739 30.6282 23.3891 30.6377L23.8542 30.8825C24.3882 31.1188 25.2836 31.3715 26.1533 30.9725C25.6754 30.0295 25.1514 29.1056 24.7101 28.1503C23.9353 26.4714 23.1744 24.7866 22.3905 23.1126Z" fill="#C4C4CE"/>
<path d="M14.6989 22.895C12.2558 25.1011 10.237 27.6879 8.2782 30.3247C8.43243 30.485 8.62266 30.6401 8.86386 30.7999C9.32296 31.1038 9.80327 31.1945 10.2449 31.1798C10.6091 30.3665 10.9755 29.5539 11.4053 28.7679C12.4815 26.7976 13.6763 24.8934 14.6989 22.895Z" fill="#C4C4CE"/>
<path d="M5.96947 15.0788C6.54396 15.2927 7.12962 15.4729 7.7185 15.6472C7.31189 15.3871 6.91078 15.1201 6.5108 14.8603C5.52288 14.2191 4.51375 13.5994 3.49059 13.0071C3.38827 13.1753 3.29467 13.3688 3.20638 13.5994C3.1285 13.8034 3.08625 14.0037 3.06787 14.1966C4.01505 14.5932 5.15739 14.7768 5.96947 15.0788Z" fill="#C4C4CE"/>
<path d="M13.1706 8.96729L12.2268 10.8802C13.35 11.5805 15.2031 13.285 15.8977 14.492C15.3224 12.8973 13.9099 10.5814 13.1706 8.96729Z" fill="#C4C4CE"/>
<path d="M27.7617 15.6304C26.6772 16.0281 25.59 16.4212 24.525 16.8678C23.819 17.1636 22.9656 17.3984 22.2439 17.7631C23.146 17.5393 24.2286 17.0456 24.8457 17.6634C25.0672 17.8844 24.9056 18.1646 24.7141 18.331C24.4204 18.586 24.1132 18.8499 23.8213 19.1296C24.6963 19.861 25.6468 20.4879 26.5971 21.1141L31.4959 16.3396C31.7676 16.0154 32.3457 15.2043 32.2917 14.2317C30.7787 14.6878 29.247 15.0853 27.7617 15.6304Z" fill="#C4C4CE"/>
</g>
<path d="M30.0199 13.5663C29.5457 12.4249 28.954 12.3012 27.5882 12.1136C27.5882 12.1136 27.5882 12.1119 27.5882 12.1112L22.3214 11.3459L19.9659 6.57246C19.355 5.33596 19.0504 4.81358 17.8176 4.72452C16.3519 4.61899 15.5944 6.12852 15.5822 6.15391L13.019 11.3461L7.71225 12.118C6.34463 12.3628 5.75215 12.5142 5.30973 13.67C4.88152 14.7888 5.62331 15.7523 5.92817 16.0842L10.1438 20.1939L9.16779 25.8868C9.1064 27.137 9.15983 27.7196 10.1445 28.3697C10.9884 28.9277 11.9144 28.6533 12.4178 28.4231L12.7369 28.2554C12.7744 28.2323 12.7958 28.2176 12.7958 28.2176L12.7951 28.2251L17.6706 25.6616L22.538 28.2202L22.5376 28.2176C22.5376 28.2176 22.5452 28.2238 22.5579 28.231L22.956 28.4396C23.4677 28.6664 24.3666 28.9135 25.1889 28.3695C26.1884 27.709 26.2282 27.1186 26.163 25.8281L25.1963 20.1935L29.4871 16.0111C29.7772 15.6651 30.479 14.6685 30.0199 13.5663Z" fill="#C4C4CE"/>
<path opacity="0.9" d="M26.3095 25.8114L26.3076 25.8032L25.2994 20.2257L29.4872 16.0112L25.1299 20.1249L25.0937 20.159L25.102 20.2094L26.0157 25.8417C26.0232 26.0759 26.0331 26.3108 26.0261 26.5386C26.0213 26.7701 25.9997 26.9969 25.9414 27.2065C25.9266 27.3179 25.8622 27.4052 25.8267 27.507C25.7765 27.601 25.7062 27.6828 25.6477 27.773L25.4181 27.9979L25.1304 28.2097C25.0505 28.2656 24.9421 28.3136 24.8506 28.3668C24.7522 28.4144 24.6441 28.4381 24.5431 28.4756C24.436 28.496 24.3278 28.514 24.2191 28.525C24.109 28.5203 23.9991 28.5366 23.8888 28.5173C23.6685 28.5008 23.4475 28.4399 23.2416 28.371L23.0771 28.3054L23.0362 28.2891C23.0362 28.2891 23.0314 28.2867 23.0286 28.2857L23.011 28.2762L22.9318 28.2344L22.6402 28.0798L22.3266 27.914L22.3274 27.9142L17.7578 25.4955L17.6703 25.4493L17.5827 25.4955L12.9963 27.9246L13.0022 27.8651L12.7013 28.0735C12.6318 28.1231 12.5028 28.1826 12.4065 28.2365C12.3184 28.2848 12.2061 28.3282 12.1037 28.3664C11.8942 28.4437 11.6765 28.4936 11.458 28.5165C11.3491 28.5334 11.2401 28.5218 11.1314 28.5262C11.0235 28.5154 10.9155 28.4981 10.8106 28.4813C10.7126 28.4458 10.6173 28.425 10.5154 28.3835C10.4182 28.3308 10.2922 28.2662 10.219 28.2222L9.94753 28.0233C9.86208 27.9517 9.7897 27.8711 9.70879 27.7976C9.64039 27.7148 9.5826 27.6265 9.52178 27.5399C9.48408 27.4407 9.42515 27.3512 9.4009 27.2455C9.37816 27.14 9.33913 27.0395 9.33401 26.9257C9.32321 26.8148 9.30445 26.7051 9.30692 26.5892C9.2982 26.3633 9.30692 26.1322 9.31336 25.9012L10.237 20.2094L10.245 20.1598L10.2092 20.126L5.92822 16.084L10.0421 20.2253L9.02347 25.8622L9.02195 25.8705L9.02157 25.8798C9.01077 26.117 8.99694 26.354 9.00243 26.5973C8.99808 26.7174 9.01513 26.8417 9.02517 26.9653C9.02915 27.0879 9.07045 27.2127 9.0966 27.3366C9.1254 27.4609 9.1938 27.5765 9.24307 27.6959C9.31393 27.8029 9.38631 27.9126 9.46797 28.0102C9.55892 28.0978 9.64627 28.1921 9.74043 28.2717L10.0371 28.4934C10.1649 28.5707 10.2509 28.6112 10.3602 28.6722C10.4745 28.7219 10.609 28.7603 10.7327 28.8011C10.8593 28.8248 10.9853 28.8449 11.1115 28.8579C11.2369 28.8553 11.3654 28.8666 11.4898 28.849C11.7405 28.8248 11.9851 28.7691 12.2184 28.6855C12.3366 28.6414 12.4465 28.6006 12.5645 28.5377C12.5746 28.5322 12.5823 28.5286 12.5913 28.5235V28.5245L12.6922 28.4722C12.7027 28.467 12.7135 28.461 12.7243 28.4551L12.8747 28.3767L17.6707 25.8731L22.4577 28.3729L22.4996 28.3943L22.5358 28.413L22.615 28.454L22.6612 28.4786L22.7508 28.5258V28.5248L22.7736 28.537L22.8524 28.5779L22.8723 28.5881C22.9102 28.6067 22.8946 28.5987 22.9081 28.6044L22.95 28.6217L23.1175 28.6866C23.3621 28.7693 23.604 28.8327 23.8596 28.8515C23.9849 28.8716 24.1147 28.8555 24.2424 28.8575C24.3697 28.8437 24.4974 28.8223 24.6232 28.7971C24.7449 28.7535 24.872 28.723 24.9876 28.6654C25.1011 28.6008 25.2132 28.5523 25.3275 28.4706L25.6132 28.2577L25.8936 27.9822C25.9673 27.8744 26.0501 27.7713 26.111 27.6561C26.1566 27.5345 26.2311 27.4183 26.2497 27.2912C26.3181 27.0401 26.3325 26.7881 26.334 26.5446C26.3376 26.2989 26.3218 26.0611 26.3101 25.8214V25.8114H26.3095Z" fill="#C4C4CE"/>
<path opacity="0.7" d="M17.8296 16.4276C21.9347 16.3108 26.431 15.6282 29.8663 13.2429C29.4131 12.4009 28.8121 12.2809 27.5883 12.1136C27.5883 12.1136 27.5883 12.1119 27.5883 12.1112L22.3215 11.3459L19.9659 6.57246C19.3551 5.33596 19.0504 4.81358 17.8177 4.72452C16.3519 4.61899 15.5944 6.12852 15.5823 6.15391L13.0191 11.3461L7.71228 12.118C6.44053 12.3452 5.83971 12.4941 5.40601 13.4401C8.83188 16.0554 13.6398 16.5473 17.8296 16.4276Z" fill="#C4C4CE"/>
<path opacity="0.9" d="M17.9165 6.86514C17.8021 6.20786 17.3719 5.66066 16.7006 6.06139C16.1146 6.40984 15.783 7.19028 15.4799 7.76874C15.0361 8.61493 14.1859 10.0339 14.4275 11.0283C14.5958 11.7214 15.2747 11.5023 15.7406 11.2136C16.5305 10.723 17.0044 10.159 17.4385 9.33777C17.8096 8.63388 18.0556 7.6615 17.9165 6.86514Z" fill="#C4C4CE"/>
<path opacity="0.9" d="M13.9016 12.339C13.928 12.1512 13.8619 11.9834 13.604 11.9318C13.1906 11.8496 12.7792 12.2952 12.6149 12.617C12.4103 13.0183 12.7133 13.391 13.135 13.3227C13.3304 13.2913 13.5091 13.1094 13.6339 12.969C13.7789 12.8055 13.8918 12.6107 13.91 12.3907C13.9111 12.3708 13.9032 12.3562 13.9016 12.339Z" fill="#C4C4CE"/>
</svg>
