<svg width="36" height="36" viewBox="0 0 36 36" fill="none" xmlns="http://www.w3.org/2000/svg">
<g clip-path="url(#clip0_5886_4163)">
<path d="M35.1255 15.8786L32.6702 13.4237C32.0875 12.841 31.6099 11.6894 31.6099 10.8636V7.39186C31.6099 5.74036 30.2608 4.39121 28.6097 4.39033H25.1366C24.3117 4.39033 23.1588 3.91193 22.576 3.32965L20.1212 0.874814C18.9548 -0.291605 17.0449 -0.291605 15.8785 0.874814L13.4237 3.33141C12.8404 3.91413 11.6862 4.39121 10.8631 4.39121H7.39138C5.74208 4.39121 4.39117 5.74036 4.39117 7.39186V10.8637C4.39117 11.6863 3.91374 12.8414 3.33093 13.4238L0.875657 15.8787C-0.291641 17.0451 -0.291641 18.9549 0.875657 20.1231L3.33093 22.578C3.91409 23.1607 4.39117 24.3154 4.39117 25.1381V28.6099C4.39117 30.2597 5.74208 31.6106 7.39138 31.6106H10.8632C11.6881 31.6106 12.841 32.088 13.4238 32.6704L15.8786 35.1261C17.045 36.2916 18.9548 36.2916 20.1213 35.1261L22.5761 32.6704C23.1594 32.0877 24.3118 31.6106 25.1367 31.6106H28.6098C30.2609 31.6106 31.61 30.2597 31.61 28.6099V25.1381C31.61 24.3119 32.0879 23.1604 32.6703 22.578L35.1255 20.1231C36.291 18.9549 36.291 17.045 35.1255 15.8786ZM15.6185 24.7505L8.99928 18.1305L11.1207 16.0095L15.619 20.5079L24.8788 11.2502L26.9996 13.3712L15.6185 24.7505Z" fill="#FFF78C"/>
</g>
<defs>
<clipPath id="clip0_5886_4163">
<rect width="36" height="36" fill="white"/>
</clipPath>
</defs>
</svg>
