<svg width="38" height="38" viewBox="0 0 38 38" fill="none" xmlns="http://www.w3.org/2000/svg">
<g clip-path="url(#clip0_5886_4265)">
<path d="M28.5505 0H9.44953C4.2307 0 0 4.2307 0 9.44953V28.5505C0 33.7693 4.2307 38 9.44953 38H28.5505C33.7693 38 38 33.7693 38 28.5505V9.44953C38 4.2307 33.7693 0 28.5505 0Z" fill="url(#paint0_linear_5886_4265)"/>
<path d="M19.9819 7.55965L19.9707 7.54926L19.9544 7.53441C19.9396 7.52031 19.924 7.50621 19.9084 7.49359L19.8995 7.48543C19.8794 7.4691 19.8594 7.45352 19.8394 7.43941L19.8297 7.43273C19.8089 7.41789 19.7874 7.40379 19.7659 7.39117C19.7421 7.37633 19.7176 7.36297 19.6917 7.35035C19.6425 7.32543 19.5916 7.30416 19.5394 7.28672C19.5375 7.28609 19.5356 7.28578 19.5336 7.28578C19.5316 7.28578 19.5297 7.28546 19.5278 7.28485C19.4856 7.27094 19.4426 7.25967 19.399 7.25109C19.3878 7.2489 19.3765 7.24793 19.3651 7.24793C19.3414 7.24793 19.3169 7.24051 19.2909 7.23828H19.2827C19.2612 7.23828 19.2397 7.23828 19.2174 7.23828H19.1966C19.1729 7.23828 19.1499 7.23828 19.1261 7.23828H19.1157C19.1004 7.23828 19.0846 7.23828 19.0687 7.24039C19.0574 7.24187 19.0462 7.24348 19.0348 7.24348C19.0103 7.24348 18.9859 7.2509 18.9606 7.25535C18.9375 7.25956 18.9144 7.26509 18.8906 7.27132C18.8878 7.27205 18.8849 7.27242 18.8821 7.27242C18.879 7.27242 18.876 7.27283 18.8731 7.27366C18.8247 7.28737 18.7774 7.30446 18.7315 7.3248C18.7299 7.32549 18.7282 7.32586 18.7264 7.32586C18.7247 7.32586 18.7231 7.32621 18.7215 7.32689C18.6738 7.34786 18.6277 7.37232 18.5836 7.40008L18.5754 7.40453C18.532 7.43255 18.4903 7.46329 18.4507 7.49656L18.4374 7.50844C18.4181 7.52477 18.3995 7.54258 18.381 7.56039L13.8878 12.0491C13.682 12.2632 13.5685 12.5494 13.5715 12.8463C13.5745 13.1432 13.6938 13.4271 13.9038 13.637C14.1138 13.8469 14.3977 13.9661 14.6946 13.9689C14.9915 13.9718 15.2776 13.8581 15.4916 13.6523C16.4343 12.7096 18.0462 13.3772 18.0462 14.7104V29.2441C18.0424 29.3955 18.0688 29.546 18.1241 29.687C18.1793 29.8279 18.2622 29.9563 18.3678 30.0647C18.4735 30.1731 18.5998 30.2593 18.7393 30.3181C18.8787 30.3769 19.0286 30.4072 19.1799 30.4072C19.3313 30.4072 19.4811 30.3769 19.6206 30.3181C19.7601 30.2593 19.8864 30.1731 19.992 30.0647C20.0977 29.9563 20.1806 29.8279 20.2358 29.687C20.291 29.546 20.3175 29.3955 20.3136 29.2441V14.3979C20.3136 13.1804 21.7856 12.5709 22.6463 13.4318C22.8592 13.6445 23.1479 13.7639 23.4488 13.7638C23.7497 13.7637 24.0382 13.644 24.2509 13.4311C24.4636 13.2182 24.583 12.9296 24.5829 12.6286C24.5827 12.3277 24.4631 12.0392 24.2502 11.8265L19.9819 7.55965Z" fill="white"/>
</g>
<defs>
<linearGradient id="paint0_linear_5886_4265" x1="16.0591" y1="18.9999" x2="37.6257" y2="18.9999" gradientUnits="userSpaceOnUse">
<stop stop-color="#312BAF"/>
<stop offset="1" stop-color="#433DA6"/>
</linearGradient>
<clipPath id="clip0_5886_4265">
<rect width="38" height="38" rx="10" fill="white"/>
</clipPath>
</defs>
</svg>
