<svg width="32" height="32" viewBox="0 0 32 32" fill="none" xmlns="http://www.w3.org/2000/svg">
<g clip-path="url(#clip0_5886_3673)">
<path d="M13.15 42.444L15.9608 45.2548L18.7715 42.444L18.7715 25.2669L13.15 25.2669L13.15 42.444Z" fill="#FFC12E"/>
<path d="M15.9567 45.2508L15.9606 45.2547L18.7714 42.4439L18.7714 25.2668L15.9567 25.2667L15.9567 45.2508Z" fill="#F7A520"/>
<path d="M13.15 29.4855H18.7715L18.7716 25.2669L13.15 25.2668V29.4855Z" fill="#F7A520"/>
<path d="M18.7716 29.4855L18.7716 25.2668L15.9568 25.2668L15.9568 29.4855H18.7716Z" fill="#F2860A"/>
<mask id="mask0_5886_3673" style="mask-type:luminance" maskUnits="userSpaceOnUse" x="-7" y="0" width="46" height="46">
<path d="M-6.66666 22.6274L15.9608 -8.74669e-06L38.5882 22.6274L15.9608 45.2548L-6.66666 22.6274Z" fill="white"/>
</mask>
<g mask="url(#mask0_5886_3673)">
<path d="M21.4306 6.0508C20.9886 6.1353 20.6691 6.52173 20.6691 6.97163V8.47997V10.9244C20.6691 13.0017 21.1575 14.4537 21.6463 15.7098C21.7971 16.308 22.0465 17.7796 21.2412 18.9221C20.517 19.9493 19.0251 20.5534 16.8982 20.6886L16.8983 8.37042C17.1503 8.59475 17.515 8.67544 17.8525 8.54816C17.9813 8.4996 18.0932 8.42579 18.1845 8.33444C18.4369 8.082 18.5332 7.69597 18.399 7.34025L16.8125 3.13186C16.6749 2.76668 16.3255 2.52503 15.9353 2.52503C15.5452 2.52498 15.1957 2.76677 15.0581 3.13177L13.5225 7.20502C13.3398 7.68952 13.5845 8.23036 14.0689 8.41298C14.4066 8.54034 14.7712 8.4596 15.0233 8.23527L15.0232 20.6902C12.8862 20.5589 11.3903 19.9566 10.6696 18.9282C9.8303 17.7307 10.1562 16.1687 10.3047 15.6338C10.7834 14.395 11.2524 12.9599 11.2524 10.9244L11.2524 8.47997V6.97163C11.2525 6.52169 10.9328 6.13525 10.4908 6.05084C10.0489 5.96634 9.60924 6.20791 9.44347 6.62603L7.80175 10.7654C7.61091 11.2468 7.84629 11.7917 8.32761 11.9826C8.68978 12.1262 9.0878 12.0283 9.34412 11.766C9.22232 13.28 8.7848 14.3845 8.3593 15.4577C7.89495 16.6292 7.41474 17.8404 7.41474 19.4282C7.41474 21.7437 8.33566 23.589 10.0779 24.7649C11.5433 25.7538 13.5225 26.2553 15.9608 26.2553C18.399 26.2553 20.3782 25.7538 21.8436 24.7649C22.1767 24.54 22.4797 24.2908 22.7521 24.0184C23.9042 22.8662 24.5068 21.3009 24.5067 19.4282C24.5067 17.8404 24.0265 16.6292 23.5621 15.4577C23.1367 14.3845 22.6992 13.2801 22.5774 11.766C22.8336 12.0283 23.2317 12.1262 23.5939 11.9826C23.7166 11.9339 23.8232 11.8623 23.911 11.7745C24.1674 11.518 24.2619 11.1241 24.1197 10.7655L22.478 6.62603C22.3122 6.20782 21.8725 5.96634 21.4306 6.0508Z" fill="#FFC12E"/>
<path d="M24.1197 10.7655L22.478 6.62602C22.3121 6.20777 21.8725 5.96634 21.4306 6.05079C20.9885 6.13525 20.6691 6.52172 20.6691 6.97162L20.6691 8.47997L20.6691 10.9243C20.6691 13.0017 21.1575 14.4536 21.6463 15.7098C21.7971 16.3079 22.0464 17.7796 21.2412 18.922C20.517 19.9493 19.0251 20.5534 16.8982 20.6886L16.8983 8.37041C17.1503 8.59474 17.5149 8.67539 17.8525 8.54816C17.9813 8.49963 18.0932 8.42579 18.1845 8.33444C18.4369 8.082 18.5331 7.69592 18.399 7.34024L16.8125 3.13185C16.6774 2.77344 16.3383 2.53457 15.9568 2.52591L15.9568 26.2552C15.9581 26.2552 15.9594 26.2553 15.9607 26.2553C18.3989 26.2553 20.3782 25.7538 21.8436 24.7649C22.1767 24.54 22.4797 24.2908 22.7522 24.0184C23.9043 22.8662 24.5068 21.3009 24.5068 19.4282C24.5068 17.8404 24.0265 16.6292 23.5621 15.4577C23.1367 14.3845 22.6991 13.28 22.5774 11.766C22.8336 12.0283 23.2317 12.1262 23.5939 11.9826C23.7166 11.9339 23.8232 11.8623 23.911 11.7745C24.1674 11.518 24.2619 11.1241 24.1197 10.7655Z" fill="#F7A520"/>
</g>
</g>
<defs>
<clipPath id="clip0_5886_3673">
<rect width="32" height="32" fill="white"/>
</clipPath>
</defs>
</svg>
